<svg width="84" height="19" viewBox="0 0 84 19" xmlns="http://www.w3.org/2000/svg"><title>IF_logo_l</title><g fill="#546475" fill-rule="evenodd"><path d="M53.308 7.568v.713c0 .17-.067.273-.267.273h-1.773V9.57h1.44c.2 0 .267.103.267.272v.68c0 .17-.067.27-.268.27h-1.44v2.07c0 .24-.066.273-.267.273h-.87c-.202 0-.27-.102-.27-.272V7.568c0-.17.068-.27.27-.27h2.91c.235.033.268.1.268.27zm5.087 5.533h-.904c-.2 0-.266-.067-.333-.27l-.235-.68h-2.14l-.236.68c-.067.203-.133.27-.334.27h-.904c-.2 0-.2-.135-.134-.237l1.94-5.26c.068-.17.17-.272.37-.272h.836c.2 0 .268.103.368.272l1.908 5.26c0 .103 0 .24-.2.24zm-1.908-2.172l-.635-1.934-.636 1.934h1.27zm4.518 2.308c-1.037 0-2.343-.61-2.343-2.002v-2.07c0-1.392 1.306-2.003 2.343-2.003 1.07 0 2.142.544 2.242 1.664 0 .204-.067.272-.268.272h-.837c-.168 0-.2-.17-.268-.272-.167-.305-.435-.407-.903-.407-.57 0-.97.34-.97.882v1.832c0 .577.4.883.97.883.468 0 .836-.17.903-.61.033-.17.033-.307.234-.307h.836c.2 0 .268.102.268.306.067 1.12-1.105 1.832-2.21 1.832zm7.027-5.668v.747c0 .17-.067.272-.267.272h-1.34v4.31c0 .204-.1.27-.267.27h-.87c-.167 0-.267-.066-.267-.27V8.553h-1.338c-.2 0-.268-.102-.268-.272v-.745c0-.17.067-.272.268-.272h4.016c.3.068.334.136.334.305zm4.92 3.666c0 1.39-1.305 2.002-2.343 2.002s-2.31-.61-2.31-2.002v-2.07c0-1.392 1.272-2.003 2.31-2.003 1.037 0 2.342.612 2.342 2.004v2.07zM71.612 9.3c0-.578-.4-.883-.97-.883-.568 0-.97.34-.97.882v1.832c0 .577.402.883.97.883.57 0 .97-.34.97-.883V9.3zm6.56 3.8h-1.037c-.2 0-.302-.067-.435-.27l-.937-1.426c-.067-.102-.1-.204-.1-.442v-.712c0-.17.066-.272.267-.272h.167c.435 0 .837-.305.837-.713 0-.44-.335-.746-.803-.746h-1.17v4.31c0 .203-.1.27-.268.27h-.87c-.168 0-.235-.067-.235-.27V7.567c0-.17.034-.27.235-.27h2.175c.937 0 1.372.203 1.74.576.335.305.502.814.502 1.39 0 .918-.67 1.563-1.206 1.766l1.238 1.8c.134.135.067.27-.1.27zm5.053-1.696c0 1.255-.97 1.832-2.31 1.832-1.07 0-2.34-.644-2.34-1.866 0-.204.066-.238.266-.238h.838c.2 0 .3.034.3.238 0 .102.068.237.168.373.168.204.536.305.837.305.47 0 .837-.1.837-.61s-.77-.51-1.506-.747c-.87-.27-1.673-.644-1.673-1.764 0-1.154 1.038-1.697 2.11-1.765 1.103 0 2.308.51 2.308 1.664 0 .204-.067.238-.268.238h-.837c-.167 0-.2-.136-.234-.238-.034-.102-.068-.17-.168-.27-.167-.17-.47-.24-.736-.24-.3 0-.77.103-.77.51 0 .543 1.272.747 1.64.883.602.237 1.54.475 1.54 1.697zM24.195 12.15v.68c0 .17-.067.27-.268.27h-2.443c-.2 0-.268-.1-.268-.27v-.68c0-.17.067-.27.268-.27h.535V8.52h-.536c-.2 0-.268-.103-.268-.273v-.712c0-.17.067-.272.268-.272h2.41c.2 0 .267.102.267.272v.712c0 .17-.066.272-.267.272h-.535v3.36h.535c.268.033.302.1.302.27zm6.057-4.582v5.295c0 .204-.1.272-.268.272h-.837c-.167 0-.268-.068-.268-.272V9.876l-.87 1.528c-.034.068-.134.17-.268.17h-.435c-.134 0-.2-.102-.235-.17l-.87-1.528v2.987c0 .204-.1.272-.267.272h-.87c-.168 0-.268-.068-.268-.272V7.568c0-.17.067-.27.268-.27h.87c.3 0 .334.203.4.304l1.206 2.173 1.206-2.173c.067-.1.1-.305.4-.305h.838c.234 0 .268.102.268.27zm5.354 1.8c0 1.22-.803 2.036-2.276 2.036h-.87v1.46c0 .203-.1.27-.268.27h-.87c-.167 0-.267-.067-.267-.27V7.567c0-.17.067-.27.267-.27h1.94c1.54.033 2.344.847 2.344 2.07zm-1.34 0c0-.442-.3-.815-.97-.815h-.836v1.663h.837c.702 0 .97-.408.97-.85zm6.527 3.733h-.904c-.202 0-.27-.067-.335-.27l-.235-.68h-2.14l-.236.68c-.067.203-.134.27-.334.27h-.904c-.2 0-.2-.135-.134-.237l1.94-5.26c.068-.17.17-.272.37-.272h.836c.2 0 .268.103.368.272l1.907 5.26c0 .103 0 .24-.2.24zM38.92 10.93l-.637-1.934-.636 1.934h1.272zm4.516 2.308c-1.037 0-2.342-.61-2.342-2.002v-2.07c0-1.392 1.305-2.003 2.342-2.003 1.07 0 2.142.544 2.242 1.664 0 .204-.066.272-.267.272h-.836c-.167 0-.2-.17-.268-.272-.167-.305-.435-.407-.903-.407-.57 0-.97.34-.97.882v1.832c0 .577.4.883.97.883.468 0 .836-.17.903-.61.034-.17.034-.307.235-.307h.837c.2 0 .268.102.268.306.033 1.12-1.138 1.832-2.21 1.832zm6.057-5.668v5.295c0 .204-.1.272-.267.272h-.87c-.168 0-.268-.068-.268-.272v-4.31h-1.74c-.2 0-.268-.102-.268-.272v-.745c0-.17.067-.272.268-.272h2.878c.234.068.267.136.267.305zM8.868.645C3.982.645 0 4.685 0 9.673c0 4.955 3.982 8.994 8.868 8.994 4.92 0 8.868-4.04 8.868-8.994.033-4.99-3.95-9.028-8.868-9.028zm-5.555 4.65h1.34v1.357h-1.34V5.295zm9.203 7.466h-.904v-1.255h.736c.736 0 1.305-.543 1.305-1.323 0-.747-.57-1.392-1.305-1.392-.67 0-1.238.577-1.27 1.324v3.903H9.77V9.808c0-.27-.1-.984-.937-.984-.57 0-.97.408-.97.984v2.987H6.558V9.808c0-.27-.1-.984-.938-.984-.57 0-.97.408-.97.984v2.987H3.313v-5.6h1.34v.543c.3-.136.6-.203.97-.203.668 0 1.237.27 1.605.712.368-.44.937-.712 1.607-.712.77 0 1.338.27 1.74.746.435-.44 1.07-.745 1.807-.745 1.54 0 2.576 1.22 2.576 2.647 0 1.425-1.037 2.58-2.442 2.58z"/></g></svg>