<svg width="122" height="42" viewBox="0 0 122 42" xmlns="http://www.w3.org/2000/svg"><title>App Store 2</title><g fill="none" fill-rule="evenodd"><rect fill="#000" width="122" height="41.966" rx="5.2"/><g fill="#FFF"><path d="M26.708 20.022c-.027-3.002 2.42-4.462 2.53-4.53-1.384-2.052-3.53-2.332-4.285-2.355-1.803-.192-3.552 1.097-4.47 1.097-.937 0-2.352-1.078-3.876-1.046-1.962.03-3.797 1.184-4.803 2.976-2.077 3.654-.528 9.024 1.462 11.977.995 1.448 2.16 3.062 3.68 3.006 1.49-.062 2.047-.965 3.844-.965 1.78 0 2.304.966 3.856.928 1.6-.024 2.605-1.452 3.566-2.912 1.15-1.656 1.612-3.29 1.63-3.374-.036-.013-3.103-1.202-3.134-4.8M23.775 11.195c.8-1.018 1.35-2.403 1.197-3.81-1.16.053-2.61.816-3.445 1.812-.74.877-1.398 2.315-1.228 3.668 1.302.098 2.64-.668 3.475-1.67"/></g><g fill="#FFF"><path d="M48.282 30.938H46.2l-1.14-3.64h-3.963l-1.086 3.64h-2.026l3.928-12.395h2.425l3.945 12.395zm-3.566-5.168l-1.03-3.236c-.11-.33-.315-1.11-.616-2.336h-.036c-.12.527-.315 1.306-.58 2.336L41.44 25.77h3.276zM58.363 26.36c0 1.52-.406 2.72-1.22 3.603-.727.785-1.632 1.177-2.71 1.177-1.166 0-2.003-.422-2.512-1.268v4.69h-1.953v-9.624c0-.955-.025-1.934-.073-2.938h1.72l.108 1.418h.037c.65-1.068 1.64-1.602 2.967-1.602 1.037 0 1.903.416 2.596 1.25.692.835 1.04 1.933 1.04 3.293zm-1.99.072c0-.87-.194-1.587-.58-2.152-.423-.587-.99-.882-1.702-.882-.48 0-.92.163-1.31.488-.393.325-.65.75-.77 1.278-.06.245-.09.446-.09.604v1.492c0 .648.196 1.197.588 1.646.393.447.902.67 1.53.67.735 0 1.308-.288 1.718-.863.41-.577.616-1.337.616-2.28zM68.48 26.36c0 1.52-.407 2.72-1.22 3.603-.728.785-1.632 1.177-2.712 1.177-1.164 0-2.002-.422-2.51-1.268v4.69H60.08v-9.624c0-.955-.024-1.934-.072-2.938h1.72l.108 1.418h.036c.65-1.068 1.64-1.602 2.968-1.602 1.037 0 1.904.416 2.598 1.25.69.835 1.04 1.933 1.04 3.293zm-1.992.072c0-.87-.194-1.587-.58-2.152-.422-.587-.99-.882-1.7-.882-.482 0-.92.163-1.313.488-.392.325-.65.75-.77 1.278-.058.245-.09.446-.09.604v1.492c0 .648.197 1.197.587 1.646.393.446.902.67 1.53.67.738 0 1.31-.288 1.72-.863.41-.577.616-1.337.616-2.28zM79.79 27.462c0 1.054-.362 1.912-1.084 2.574-.794.723-1.902 1.085-3.323 1.085-1.312 0-2.365-.256-3.158-.77l.452-1.656c.857.515 1.798.773 2.823.773.737 0 1.31-.17 1.718-.505.41-.34.617-.788.617-1.35 0-.505-.17-.928-.508-1.27-.338-.343-.897-.664-1.682-.956-2.135-.81-3.204-1.994-3.204-3.55 0-1.017.38-1.85 1.13-2.5.755-.65 1.754-.976 2.997-.976 1.11 0 2.034.196 2.77.588l-.492 1.62c-.69-.38-1.47-.57-2.343-.57-.69 0-1.23.17-1.617.514-.326.307-.492.68-.492 1.123 0 .49.188.895.563 1.213.325.294.917.614 1.773.957 1.05.43 1.82.93 2.315 1.507.498.575.745 1.293.745 2.15M86.268 23.49h-2.154v4.34c0 1.104.38 1.654 1.14 1.654.35 0 .64-.03.868-.092l.054 1.508c-.385.146-.892.22-1.52.22-.77 0-1.373-.24-1.81-.72-.434-.477-.65-1.28-.65-2.408v-4.505H80.91v-1.49h1.283V20.36l1.92-.588v2.225h2.153v1.494M95.967 26.396c0 1.373-.385 2.5-1.158 3.383-.81.907-1.883 1.36-3.222 1.36-1.293 0-2.32-.435-3.086-1.305-.767-.87-1.15-1.967-1.15-3.29 0-1.385.397-2.52 1.185-3.402.79-.882 1.856-1.324 3.195-1.324 1.29 0 2.327.436 3.113 1.305.75.844 1.122 1.933 1.122 3.27zm-2.025.045c0-.817-.174-1.52-.524-2.107-.41-.71-.997-1.064-1.756-1.064-.782 0-1.384.353-1.792 1.063-.35.587-.524 1.302-.524 2.146 0 .818.173 1.522.524 2.107.423.71 1.012 1.066 1.777 1.066.746 0 1.33-.364 1.756-1.083.358-.6.54-1.308.54-2.13zM102.322 23.747c-.193-.037-.4-.054-.616-.054-.687 0-1.22.26-1.593.79-.325.466-.487 1.055-.487 1.765v4.69H97.67v-6.123c0-1.03-.018-1.97-.055-2.814h1.702l.07 1.71h.055c.207-.586.532-1.06.977-1.414.436-.32.905-.48 1.412-.48.18 0 .344.014.488.036l.002 1.895M111.062 26.046c0 .356-.023.656-.07.9h-5.863c.02.884.305 1.56.85 2.026.493.415 1.132.624 1.916.624.868 0 1.66-.14 2.372-.423l.306 1.378c-.832.37-1.815.554-2.948.554-1.364 0-2.435-.408-3.214-1.222-.776-.815-1.167-1.91-1.167-3.282 0-1.347.36-2.47 1.087-3.365.76-.955 1.785-1.433 3.076-1.433 1.267 0 2.227.478 2.878 1.433.517.758.776 1.697.776 2.81zm-1.863-.515c.012-.588-.116-1.095-.38-1.525-.34-.553-.86-.83-1.557-.83-.64 0-1.16.27-1.556.81-.325.43-.52.947-.578 1.544h4.07z"/></g><g fill="#FFF"><path d="M43.774 14.107H42.75l-.56-1.79h-1.948l-.534 1.79h-.996l1.93-6.092h1.192l1.94 6.092zm-1.752-2.54l-.507-1.59c-.053-.164-.152-.543-.303-1.148h-.018c-.062.26-.15.64-.285 1.146l-.5 1.59h1.612zM48.6 9.715l-1.636 4.392h-.934l-1.584-4.392h1.032l.74 2.322c.124.39.23.76.31 1.112h.026c.072-.317.178-.688.31-1.113l.73-2.322h1.007M52.086 14.107l-.072-.506h-.026c-.293.408-.72.607-1.263.607-.774 0-1.326-.552-1.326-1.293 0-1.084.924-1.645 2.526-1.645v-.082c0-.578-.303-.868-.9-.868-.426 0-.8.11-1.128.326l-.195-.642c.4-.253.898-.38 1.486-.38 1.128 0 1.698.606 1.698 1.817v1.62c0 .443.018.786.062 1.048h-.864zm-.134-2.188c-1.068 0-1.6.262-1.6.885 0 .46.275.686.657.686.488 0 .942-.378.942-.893v-.678zM55.027 8.99c-.32 0-.57-.252-.57-.587 0-.334.26-.578.59-.578.328 0 .594.244.585.578 0 .353-.248.588-.605.588zm-.462.725h.96v4.392h-.96V9.715zM57.233 7.7h.96v6.407h-.96V7.7zM62.276 14.107l-.073-.506h-.025c-.294.408-.72.607-1.263.607-.774 0-1.326-.552-1.326-1.293 0-1.084.924-1.645 2.525-1.645v-.082c0-.578-.302-.868-.898-.868-.427 0-.8.11-1.13.326l-.195-.643c.4-.253.898-.38 1.486-.38 1.13 0 1.7.606 1.7 1.817v1.618c0 .444.018.787.06 1.05h-.862zm-.134-2.188c-1.068 0-1.6.262-1.6.885 0 .46.275.686.657.686.488 0 .942-.378.942-.893v-.678zM66.97 14.207c-.614 0-1.067-.263-1.36-.778h-.02l-.055.677h-.817c.025-.352.034-.75.034-1.184V7.7h.963v2.657h.017c.285-.488.747-.732 1.38-.732 1.04 0 1.77.905 1.77 2.223 0 1.364-.81 2.36-1.913 2.36zm-.196-3.815c-.553 0-1.06.488-1.06 1.166v.768c0 .606.456 1.103 1.042 1.103.72 0 1.15-.597 1.15-1.546-.002-.886-.448-1.492-1.132-1.492zM70.303 7.7h.96v6.407h-.96V7.7zM76.49 12.146H73.61c.02.83.56 1.3 1.36 1.3.428 0 .82-.072 1.166-.207l.15.677c-.41.18-.89.27-1.45.27-1.353 0-2.153-.867-2.153-2.213 0-1.347.82-2.36 2.047-2.36 1.102 0 1.797.833 1.797 2.09.003.17-.005.324-.033.442zm-.88-.696c0-.678-.338-1.157-.952-1.157-.552 0-.986.488-1.05 1.157h2.003zM82.314 14.207c-1.263 0-2.082-.96-2.082-2.26 0-1.356.836-2.323 2.154-2.323 1.244 0 2.082.913 2.082 2.25 0 1.374-.864 2.333-2.154 2.333zm.036-3.87c-.694 0-1.138.66-1.138 1.582 0 .904.454 1.563 1.13 1.563.675 0 1.128-.705 1.128-1.582 0-.894-.444-1.562-1.12-1.562zM89.632 14.107h-.96v-2.522c0-.777-.293-1.166-.872-1.166-.57 0-.96.496-.96 1.074v2.613h-.96V10.97c0-.388-.01-.805-.036-1.256h.845l.044.678h.027c.257-.47.783-.77 1.37-.77.906 0 1.502.706 1.502 1.854v2.63M95.917 10.447H94.86v2.133c0 .543.186.814.56.814.168 0 .312-.02.426-.046l.027.74c-.187.074-.437.11-.746.11-.758 0-1.21-.424-1.21-1.537v-2.213h-.63v-.732h.63V8.91l.943-.29v1.094h1.057v.733M101.004 14.107h-.96v-2.504c0-.786-.296-1.183-.873-1.183-.497 0-.96.343-.96 1.04v2.647h-.96V7.7h.96v2.638h.02c.3-.48.738-.715 1.298-.715.916 0 1.476.723 1.476 1.87v2.614M105.913 12.146h-2.883c.018.83.56 1.3 1.36 1.3.43 0 .82-.072 1.164-.207l.15.677c-.407.18-.89.27-1.45.27-1.352 0-2.152-.867-2.152-2.213 0-1.347.82-2.36 2.045-2.36 1.103 0 1.798.833 1.798 2.09.003.17-.006.324-.032.442zm-.88-.696c0-.678-.34-1.157-.953-1.157-.552 0-.987.488-1.05 1.157h2.002z"/></g></g></svg>