<svg width="61" height="36" viewBox="0 0 61 36" xmlns="http://www.w3.org/2000/svg" xmlns:xlink="http://www.w3.org/1999/xlink"><title>Imported Layers</title><defs><path id="a" d="M4 9.92c-.01 5.003-.01 10.008 0 15-1.34-2.572-2.67-5.133-4-7.695 1.34-2.43 2.67-4.872 4-7.304z"/></defs><g fill="none" fill-rule="evenodd"><path d="M60.97 31.543c0 2.45-2.06 4.457-4.602 4.457H13.593C11.05 36 9 33.994 9 31.543c.03-9.005.03-18.043.06-27.105C9.06 1.988 11.12 0 13.623 0c14.254.02 28.534.02 42.81.02C58.938.037 61 2.03 61 4.475c0 9.024-.03 18.08-.03 27.067z" fill="#FCF59A"/><path d="M36.035 6H61v-.267H36.315L36.28 0H36l.035 5.87V6zM60 30.27V30H36.034L36 36h.27l.033-5.73H60zm-26.54-.104c-.015-.024-.024-.034-.034-.048v-.09h-.065c-2.815-3.66-.332-6.327-.054-6.605h.065c.04 0 .354.053.835.053.904 0 2.374-.172 3.636-1.104 1.233-.908 1.968-2.336 2.19-4.238H61v-.268H40.016c-.18-1.82-.864-3.21-2.046-4.114-1.828-1.405-4.147-1.214-4.505-1.166-2.885-3.655-.452-6.34-.124-6.685h.086L33.46 0h-.283l-.034 5.638H9.055V5.9H32.98c-.627.76-2.35 3.365.153 6.69H9.035v.27H33.41c.026 0 2.534-.322 4.39 1.098 1.138.88 1.8 2.24 1.963 4.042-.2 1.878-.9 3.278-2.086 4.162-1.838 1.357-4.24.994-4.28.994H9.014v.267h23.93c-.612.73-2.345 3.307.073 6.604H9v.268h24.143L33.177 36h.283l-.034-5.806.034-.028z" fill="#546475"/><use opacity=".5" fill="#FFF" xlink:href="#a"/></g></svg>