<svg width="122" height="42" viewBox="0 0 122 42" xmlns="http://www.w3.org/2000/svg" xmlns:xlink="http://www.w3.org/1999/xlink"><title>Play Store 2</title><defs><linearGradient x1="58.917%" y1="9.59%" x2="90.81%" y2="60.851%" id="a"><stop stop-color="#FF177B" offset="0%"/><stop stop-color="#FFEC73" offset="100%"/></linearGradient><linearGradient x1="37.103%" y1="-44.035%" x2="0%" y2="101.06%" id="c"><stop stop-color="#064AA2" offset="0%"/><stop stop-color="#63FFD4" offset="100%"/></linearGradient><path id="b" d="M11.48 10.66L.414 0C.155.06 0 .257 0 .588v20.395c0 .28.11.447.248.503L11.48 10.66z"/><path id="e" d="M.457 10.725l6.398-3.57L9.68 5.562l4.653-2.546L11.235-.04.002 10.786c.125.04.346.02.518-.068"/><linearGradient x1="78.645%" y1="50%" x2="2.495%" y2="100%" id="f"><stop stop-color="#FF4521" offset="0%"/><stop stop-color="#8A33DB" offset="100%"/></linearGradient><linearGradient x1="0%" y1="-24.186%" x2="64.224%" y2="100%" id="i"><stop stop-color="#00A3B5" offset="0%"/><stop stop-color="#D6FFA1" offset="100%"/></linearGradient><path id="h" d="M.59.096C.375-.02.163-.054-.008-.006L11.07 10.67l3.065-2.948-4.62-2.6L2.533 1.19.59.096z"/></defs><g fill="none" fill-rule="evenodd"><rect fill="#000" width="122" height="41.966" rx="5.2"/><path d="M9.927 5.122L1.015.105C.52-.175.027-.005.027.577v20.438c0 .436.352.625.782.383.43-.24 9.117-5.133 9.117-5.133l1.77-.996 2.85-1.605 4.44-2.5c.52-.293.47-.695.032-.927-.44-.23-4.474-2.516-4.474-2.516l-4.62-2.6z" fill="url(#a)" transform="translate(4.956 15.024)"/><g transform="translate(4.956 15.024)"><mask id="d" fill="#fff"><use xlink:href="#b"/></mask><use fill="url(#c)" xlink:href="#b"/><path d="M14.538 7.722L9.912 5.12C9.896 5.158 1.482.41.992.168.49-.148 0 .022 0 .588v20.479c0 .45.352.64.743.42.468-.265 9.153-5.166 9.17-5.204l4.625-2.602c-.024.037 3.894-2.174 4.377-2.433.558-.328.508-.73.083-.923-.454-.27-4.484-2.56-4.46-2.602" mask="url(#d)"/></g><g transform="translate(5.202 25.725)"><mask id="g" fill="#fff"><use xlink:href="#e"/></mask><path d="M9.666-5.582c-.017.038-8.43-4.71-8.92-4.952-.5-.315-.992-.146-.992.42v20.479c0 .45.35.64.743.42.468-.265 9.152-5.165 9.17-5.204l4.624-2.6c-.023.035 3.895-2.176 4.38-2.435.557-.328.507-.73.082-.923-.454-.27-4.485-2.56-4.46-2.602L9.665-5.582z" fill="url(#f)" mask="url(#g)"/></g><g transform="translate(5.367 15.024)"><mask id="j" fill="#fff"><use xlink:href="#h"/></mask><use fill="url(#i)" xlink:href="#h"/><path d="M14.126 7.722L9.5 5.12C9.485 5.158 1.07.41.58.168c-.5-.316-.99-.146-.99.42v20.479c0 .45.35.64.742.42.468-.265 9.152-5.166 9.17-5.204l4.624-2.602c-.024.037 3.894-2.174 4.378-2.433.558-.328.508-.73.083-.923-.454-.27-4.485-2.56-4.46-2.602" mask="url(#j)"/></g><g fill="#FFF"><path d="M83.56 29.28l-.915.883c-.212.12-.422.257-.632.355-.635.295-1.28.37-1.855.37-.61 0-1.57-.042-2.546-.764-1.357-.977-1.95-2.657-1.95-4.12 0-3.03 2.413-4.518 4.382-4.518.688 0 1.395.177 1.97.548.955.646 1.202 1.485 1.34 1.934l-4.497 1.857-1.472.117c.476 2.485 2.12 3.93 3.94 3.93.906 0 1.58-.303 2.2-.615 0 0 .123-.066.034.024zm-2.748-4.984c.36-.136.55-.254.55-.528 0-.786-.856-1.694-1.875-1.694-.755 0-2.174.612-2.174 2.738 0 .332.04.686.058 1.04l3.442-1.556z"/><path d="M74.177 29.175c0 .757.132.875.758.935.327.04.652.056.974.096l-.706.43h-3.36c.442-.586.517-.644.517-1.034v-.435l-.006-11.593H70.87l1.43-.704h2.725c-.59.35-.768.564-.844 1.246l-.003 11.06"/><path d="M68.965 22.443c.437.368 1.35 1.15 1.35 2.63 0 1.444-.796 2.125-1.597 2.77-.246.253-.533.528-.533.953 0 .43.287.665.494.84l.687.544c.835.722 1.597 1.385 1.597 2.73 0 1.835-1.732 3.684-5.006 3.684-2.758 0-4.09-1.345-4.09-2.788 0-.702.34-1.696 1.466-2.377 1.18-.74 2.778-.84 3.634-.897-.267-.353-.572-.724-.572-1.328 0-.33.097-.528.19-.76-.208.02-.418.04-.608.04-2.018 0-3.16-1.54-3.16-3.06 0-.898.4-1.893 1.22-2.614 1.085-.914 2.38-1.072 3.407-1.072h3.92l-1.218.705h-1.182zm-1.34 8.633c-.156-.02-.25-.02-.44-.02-.175 0-1.21.037-2.014.316-.423.16-1.65.635-1.65 2.045 0 1.407 1.324 2.422 3.375 2.422 1.84 0 2.82-.915 2.82-2.145 0-1.012-.633-1.546-2.09-2.62zm.54-3.755c.437-.448.475-1.067.475-1.42 0-1.397-.812-3.574-2.387-3.574-.49 0-1.024.253-1.326.644-.32.405-.417.93-.417 1.435 0 1.302.74 3.46 2.368 3.46.475 0 .986-.236 1.286-.544zM57.104 30.887c-3.03 0-4.653-2.43-4.653-4.63 0-2.57 2.04-4.77 4.94-4.77 2.804 0 4.56 2.26 4.56 4.63 0 2.318-1.736 4.77-4.846 4.77zm2.37-1.59c.464-.63.576-1.416.576-2.183 0-1.733-.803-5.04-3.176-5.04-.63 0-1.267.254-1.725.668-.75.69-.882 1.555-.882 2.404 0 1.945.935 5.153 3.254 5.153.75 0 1.512-.374 1.953-1.002zM46.944 30.887c-3.033 0-4.653-2.43-4.653-4.63 0-2.57 2.042-4.77 4.942-4.77 2.803 0 4.558 2.26 4.558 4.63 0 2.318-1.734 4.77-4.846 4.77zm2.372-1.59c.46-.63.574-1.416.574-2.183 0-1.733-.805-5.04-3.177-5.04-.634 0-1.263.254-1.723.668-.75.69-.882 1.555-.882 2.404 0 1.945.94 5.153 3.256 5.153.747 0 1.51-.374 1.952-1.002zM41.034 30.306l-2.568.6c-1.04.17-1.975.316-2.964.316-4.953 0-6.84-3.728-6.84-6.645 0-3.564 2.674-6.867 7.253-6.867.97 0 1.9.145 2.75.382 1.346.387 1.975.863 2.37 1.142l-1.493 1.45-.63.143.45-.73c-.608-.607-1.724-1.727-3.843-1.727-2.834 0-4.97 2.202-4.97 5.417 0 3.453 2.44 6.7 6.353 6.7 1.15 0 1.742-.235 2.28-.456v-2.96l-2.712.15 1.438-.79h3.805l-.465.46c-.126.108-.143.145-.178.292-.02.167-.036.698-.036.885v2.24M89.1 29.37v4.958h-.966V21.714h.967v1.437c.63-.928 1.78-1.664 3.117-1.664 2.397 0 4.012 1.852 4.012 4.784 0 2.912-1.616 4.802-4.013 4.802-1.26 0-2.392-.662-3.116-1.7zm6.138-3.025c0-2.232-1.135-3.935-3.148-3.935-1.25 0-2.445 1.007-2.965 1.885v4.08c.52.88 1.715 1.924 2.965 1.924 2.013 0 3.148-1.718 3.148-3.955zM97.55 18.213h.992v12.674h-.992V18.213zM109.318 33.455c.207.094.56.152.783.152.592 0 1.004-.246 1.374-1.116l.705-1.627-3.81-9.21h1.08l3.266 7.982 3.234-7.98h1.094l-4.644 11.14c-.482 1.15-1.24 1.7-2.282 1.7-.313 0-.725-.056-.966-.13l.166-.91M106.59 30.874c-.065-.318-.114-.6-.15-.833-.03-.233-.047-.472-.047-.715-.333.498-.805.913-1.408 1.24-.604.328-1.177.49-1.964.49-.946 0-1.68-.238-2.206-.72-.522-.48-.786-1.13-.786-1.955 0-.823.38-1.49 1.14-2.002.76-.513 1.743-.77 2.958-.77h2.267v-1.14c0-.656-.22-1.173-.658-1.548-.44-.375-1.06-.565-1.862-.565-.733 0-1.327.174-1.78.51-.45.346-.675.773-.675 1.287h-.995l-.02-.05c-.036-.693.275-1.3.938-1.827.66-.525 1.524-.79 2.587-.79 1.06 0 1.918.26 2.564.78.647.513.97 1.255.97 2.224v4.53c0 .324.017.64.057.945.04.307.106.613.193.91h-1.12zm-3.452-.66c.825 0 1.418-.188 2.024-.56.602-.373 1.012-.857 1.227-1.443V26.44h-2.278c-.87 0-1.59.197-2.155.595-.567.396-.855.876-.855 1.434 0 .526.182.947.544 1.266.363.323.86.482 1.492.482z"/></g><g fill="#FFF"><path d="M28.335 9.678c0-1.808 1.42-2.97 3.188-2.97 1.184 0 1.958.534 2.44 1.188l-.864.474c-.33-.43-.903-.766-1.577-.766-1.202 0-2.095.86-2.095 2.074 0 1.197.893 2.075 2.095 2.075.62 0 1.166-.267 1.44-.516v-.887H31.14v-.887h2.878v2.144c-.59.628-1.448 1.05-2.495 1.05-1.767 0-3.188-1.18-3.188-2.98M35.396 12.57V6.795h4.22v.892h-3.14v1.49h3.075v.89h-3.074v1.61h3.14v.893h-4.22M42.485 12.57V7.687H40.65v-.892h4.735v.892H43.55v4.883h-1.065M49.173 6.795h1.034v5.775h-1.034V6.795zM53.163 12.57V7.687h-1.837v-.892h4.736v.892h-1.836v4.883h-1.063M59.592 9.683c0-1.717 1.3-2.976 3.144-2.976 1.833 0 3.142 1.26 3.142 2.976 0 1.715-1.31 2.974-3.142 2.974-1.844 0-3.144-1.26-3.144-2.974zm5.167-.044c0-1.18-.797-2.058-2.024-2.058-1.236 0-2.024.88-2.024 2.057 0 1.167.788 2.055 2.024 2.055 1.227 0 2.023-.888 2.023-2.056zM71.31 12.57l-3.163-4.13v4.13h-1.063V6.795h1.09l3.1 4v-4h1.062v5.775H71.31"/></g></g></svg>