<svg width="76" height="45" viewBox="0 0 76 45" xmlns="http://www.w3.org/2000/svg"><title>AmericanExpress-light</title><g fill="none" fill-rule="evenodd"><rect fill="#FFF" width="75.034" height="45" rx="3"/><path d="M63.334 26h-2.65c-.266 0-.44.01-.59.11-.153.097-.212.243-.212.435 0 .23.13.385.318.452.153.053.318.07.56.07l.79.02c.794.02 1.325.156 1.65.488.058.046.093.098.134.15V26zm0 3.998c-.353.515-1.042.776-1.974.776h-2.81v-1.3h2.8c.276 0 .47-.037.587-.15.102-.095.172-.23.172-.396 0-.177-.07-.317-.178-.402-.106-.092-.26-.134-.513-.134-1.367-.046-3.07.042-3.07-1.878 0-.88.56-1.805 2.087-1.805h2.897V23.5h-2.692c-.812 0-1.403.194-1.82.495v-.495H54.84c-.637 0-1.384.157-1.738.495v-.495h-7.11v.495c-.566-.407-1.52-.495-1.96-.495h-4.69v.495c-.45-.432-1.445-.495-2.052-.495h-5.248l-1.202 1.295-1.125-1.295h-7.84v8.463h7.693l1.238-1.315 1.165 1.315 4.744.005v-1.99h.466c.63.008 1.37-.017 2.026-.3v2.285h3.91V29.76h.19c.24 0 .264.01.264.25v1.955h11.882c.755 0 1.543-.192 1.98-.542v.542h3.77c.783 0 1.55-.11 2.132-.39v-1.577zm-5.802-2.423c.283.292.435.66.435 1.285 0 1.305-.818 1.914-2.285 1.914H52.85v-1.3h2.82c.276 0 .472-.037.595-.15.1-.095.17-.23.17-.396 0-.177-.076-.317-.176-.402-.112-.092-.266-.134-.52-.134-1.36-.046-3.063.042-3.063-1.878 0-.88.555-1.805 2.08-1.805h2.916V26h-2.668c-.265 0-.437.01-.583.11-.16.097-.22.243-.22.436 0 .228.137.384.32.45.153.055.318.07.566.07l.783.02c.79.02 1.332.156 1.662.49zM44.407 27.2c-.195.115-.435.125-.718.125H41.92v-1.362h1.79c.26 0 .52.005.695.11.188.098.3.286.3.545 0 .26-.112.47-.3.582zm.878.755c.324.12.59.333.713.51.205.296.235.572.24 1.107v1.202h-1.46v-.76c0-.364.036-.904-.235-1.186-.212-.217-.536-.27-1.067-.27h-1.554v2.216H40.46v-6.066h3.358c.737 0 1.273.033 1.75.287.46.276.748.655.748 1.347 0 .968-.648 1.462-1.03 1.613zm1.838-3.247h4.854v1.255H48.57v1.103h3.324v1.237H48.57v1.207l3.407.006v1.258h-4.854v-6.066zm-9.814 2.8h-1.88v-1.545h1.896c.525 0 .89.213.89.744 0 .524-.348.8-.907.8zm-3.33 2.714l-2.233-2.47 2.234-2.393v4.862zm-5.767-.712h-3.576v-1.207h3.193v-1.237h-3.193v-1.103h3.647l1.59 1.767-1.66 1.78zm11.564-2.803c0 1.685-1.26 2.033-2.533 2.033H35.43v2.034H32.6l-1.79-2.008-1.862 2.008h-5.762v-6.066h5.85l1.79 1.99 1.85-1.99h4.648c1.154 0 2.45.32 2.45 2zM16.248 17.718l-.995-2.417-.99 2.418h1.985zm21.933-.963c-.2.12-.436.125-.72.125h-1.766v-1.347h1.79c.255 0 .52.012.69.11.19.088.306.276.306.536 0 .264-.11.477-.3.575zm12.606.963L49.78 15.3l-1 2.418h2.006zm-23.498 2.617h-1.49l-.006-4.75-2.11 4.75h-1.276L20.29 15.58v4.755h-2.958l-.558-1.353h-3.03l-.564 1.353H11.6l2.605-6.064h2.16l2.475 5.742v-5.74h2.374l1.904 4.113 1.75-4.114h2.42v6.065zm5.944 0h-4.86V14.27h4.86v1.263h-3.405v1.094h3.323v1.243h-3.323v1.21h3.405v1.255zm6.85-4.43c0 .966-.647 1.465-1.024 1.615.318.12.59.334.72.51.205.303.24.572.24 1.114v1.19H38.55l-.005-.764c0-.365.035-.89-.23-1.18-.212-.215-.536-.26-1.06-.26h-1.56v2.205H34.24V14.27h3.345c.744 0 1.29.02 1.762.29.46.272.736.667.736 1.344zm2.328 4.43h-1.484V14.27h1.484v6.065zm17.22 0h-2.063l-2.757-4.552v4.552h-2.962l-.566-1.353H48.26l-.55 1.353h-1.7c-.708 0-1.603-.156-2.11-.67-.51-.516-.777-1.213-.777-2.316 0-.9.16-1.723.784-2.372.47-.484 1.207-.707 2.21-.707h1.407v1.3h-1.378c-.53 0-.83.08-1.12.36-.248.255-.418.737-.418 1.373 0 .65.13 1.118.4 1.424.224.24.63.313 1.014.313h.653l2.05-4.77h2.18l2.462 5.737V14.27h2.215l2.557 4.224V14.27h1.49v6.065zm-48.046 1.19h2.485l.56-1.346h1.254l.56 1.346h4.89v-1.03l.435 1.034h2.538l.436-1.05v1.046h12.152l-.005-2.21h.236c.164.005.213.02.213.29v1.92h6.284v-.515c.507.272 1.295.516 2.333.516H48.6l.567-1.347h1.254l.555 1.346h5.095v-1.28l.772 1.28h4.083v-8.458h-4.04v1l-.567-1h-4.146v1l-.52-1h-5.6c-.938 0-1.762.13-2.428.494v-.494H39.76v.494c-.425-.375-1.002-.494-1.644-.494h-14.12l-.948 2.185-.973-2.185h-4.448v1l-.49-1h-3.792l-1.76 4.02v4.438z" fill="#0072CE"/></g></svg>