<svg width="76" height="45" viewBox="0 0 76 45" xmlns="http://www.w3.org/2000/svg"><title>DinersClub-light</title><g fill="none" fill-rule="evenodd"><rect fill="#FFF" width="75.034" height="45" rx="3"/><path d="M14.667 26.987c0-.905-.473-.845-.925-.855v-.26c.392.018.795.018 1.188.018.423 0 .997-.02 1.742-.02 2.608 0 4.028 1.74 4.028 3.523 0 .997-.584 3.503-4.15 3.503-.512 0-.986-.02-1.46-.02-.452 0-.896.01-1.348.02v-.262c.603-.06.896-.08.925-.765v-4.883zm.987 4.72c0 .776.555.866 1.048.866 2.176 0 2.89-1.64 2.89-3.14 0-1.882-1.21-3.24-3.152-3.24-.414 0-.604.03-.786.04v5.475zM21.053 32.634h.19c.282 0 .484 0 .484-.333v-2.726c0-.442-.15-.503-.524-.704v-.16c.473-.143 1.038-.333 1.078-.363.07-.04.13-.05.182-.05.05 0 .07.06.07.14V32.3c0 .334.222.334.505.334h.17v.262c-.342 0-.695-.02-1.057-.02s-.725.01-1.097.02v-.262zm1.077-5.888c-.262 0-.493-.24-.493-.503 0-.252.242-.484.493-.484.26 0 .494.21.494.483 0 .272-.223.503-.494.503zM24.164 29.634c0-.37-.11-.472-.584-.663v-.19c.433-.14.845-.273 1.33-.484.03 0 .06.02.06.1v.655c.574-.41 1.067-.754 1.743-.754.854 0 1.156.624 1.156 1.41V32.3c0 .334.222.334.503.334h.182v.262c-.354 0-.706-.02-1.068-.02-.363 0-.725.01-1.088.02v-.262h.18c.283 0 .483 0 .483-.333v-2.604c0-.575-.35-.856-.925-.856-.322 0-.836.26-1.17.483V32.3c0 .334.223.334.505.334h.18v.262c-.35 0-.704-.02-1.067-.02-.36 0-.724.01-1.087.02v-.262h.18c.283 0 .484 0 .484-.333v-2.666M29.32 30.118c-.02.09-.02.242 0 .584.06.956.675 1.74 1.48 1.74.554 0 .988-.3 1.36-.673l.14.14c-.463.614-1.037 1.137-1.862 1.137-1.6 0-1.924-1.55-1.924-2.194 0-1.973 1.33-2.557 2.033-2.557.817 0 1.694.513 1.703 1.58 0 .06 0 .12-.01.182l-.09.06h-2.83zm1.783-.322c.25 0 .28-.13.28-.252 0-.513-.31-.926-.875-.926-.614 0-1.037.453-1.158 1.178h1.753zM32.482 32.634h.272c.28 0 .483 0 .483-.333v-2.826c0-.312-.373-.373-.524-.454v-.15c.735-.312 1.138-.574 1.23-.574.06 0 .09.03.09.13v.907h.02c.25-.392.675-1.037 1.29-1.037.25 0 .573.17.573.533 0 .27-.19.514-.473.514-.313 0-.313-.243-.666-.243-.17 0-.735.233-.735.837V32.3c0 .334.202.334.484.334h.563v.262c-.555-.01-.976-.02-1.41-.02-.413 0-.836.01-1.198.02v-.262M36.358 31.496c.132.665.534 1.23 1.27 1.23.593 0 .815-.364.815-.716 0-1.188-2.195-.805-2.195-2.425 0-.565.453-1.29 1.56-1.29.323 0 .756.092 1.148.294l.07 1.024h-.23c-.1-.633-.453-.996-1.098-.996-.403 0-.785.232-.785.664 0 1.18 2.335.816 2.335 2.396 0 .664-.533 1.37-1.732 1.37-.402 0-.876-.142-1.228-.343l-.11-1.158.18-.05M48.34 27.692h-.25c-.192-1.177-1.028-1.65-2.155-1.65-1.16 0-2.84.774-2.84 3.19 0 2.033 1.45 3.493 3 3.493.997 0 1.824-.685 2.025-1.742l.232.06-.232 1.47c-.423.262-1.56.534-2.226.534-2.356 0-3.846-1.52-3.846-3.784 0-2.064 1.843-3.544 3.817-3.544.815 0 1.6.26 2.376.533l.1 1.44M48.704 32.634h.19c.284 0 .485 0 .485-.333v-5.604c0-.654-.152-.674-.535-.785v-.16c.402-.13.826-.312 1.038-.434.11-.06.19-.11.22-.11.062 0 .082.06.082.14v6.955c0 .334.22.334.503.334h.17v.262c-.34 0-.693-.02-1.056-.02-.362 0-.725.01-1.098.02v-.262M55.17 32.342c0 .182.11.19.28.19.122 0 .272-.008.404-.008v.212c-.433.04-1.26.25-1.45.31l-.05-.03v-.815c-.604.494-1.068.847-1.784.847-.544 0-1.107-.353-1.107-1.197v-2.578c0-.262-.04-.513-.603-.563v-.193c.362-.01 1.166-.07 1.298-.07.11 0 .11.07.11.292v2.596c0 .302 0 1.167.877 1.167.342 0 .795-.26 1.218-.613v-2.708c0-.2-.483-.312-.845-.412v-.18c.905-.063 1.47-.143 1.57-.143.082 0 .082.07.082.182v3.712M57.173 29.02c.402-.34.946-.724 1.5-.724 1.17 0 1.873 1.017 1.873 2.114 0 1.318-.967 2.637-2.407 2.637-.746 0-1.138-.242-1.4-.353l-.302.232-.21-.11c.09-.594.14-1.178.14-1.792v-4.328c0-.654-.152-.674-.535-.785v-.16c.404-.13.826-.312 1.037-.434.112-.06.192-.11.223-.11.06 0 .08.06.08.14v3.674zm0 2.738c0 .383.363 1.027 1.037 1.027 1.077 0 1.53-1.057 1.53-1.953 0-1.087-.825-1.992-1.61-1.992-.374 0-.685.242-.957.473v2.445zM13.73 38.748h.078c.197 0 .405-.027.405-.312v-2.87c0-.284-.208-.31-.405-.31h-.077v-.166c.214 0 .543.022.812.022.274 0 .602-.022.86-.022v.165h-.077c-.197 0-.405.027-.405.312v2.87c0 .284.208.31.405.31h.077v.166c-.263 0-.592-.02-.865-.02-.27 0-.593.02-.806.02v-.165" fill="#1A1918"/><path d="M15.402 38.936c-.265 0-.593-.022-.866-.022-.268 0-.59.022-.805.022h-.023v-.21h.1c.2-.006.38-.022.382-.29v-2.87c-.003-.267-.184-.284-.383-.288h-.1v-.212h.024c.216 0 .544.02.812.02.273 0 .6-.02.86-.02h.024v.212h-.1c-.2.004-.38.02-.382.29v2.868c0 .268.182.284.382.29h.1v.21h-.024zm-.024-.047v-.117h-.052c-.196 0-.43-.034-.43-.337v-2.87c0-.302.234-.336.43-.336h.052v-.116c-.253 0-.57.022-.836.022-.26 0-.575-.02-.787-.022v.116h.052c.196 0 .43.034.43.337v2.87c0 .302-.234.336-.43.336h-.052v.116c.212-.002.52-.023.78-.023.268 0 .585.02.843.022zM19.166 37.833l.01-.01V35.77c0-.45-.312-.516-.476-.516h-.12v-.164c.257 0 .51.022.766.022.225 0 .45-.022.675-.022v.164h-.08c-.232 0-.49.044-.49.696v2.492c0 .192.006.383.033.553h-.208l-2.822-3.144v2.258c0 .477.093.64.515.64h.093v.165c-.234 0-.47-.02-.705-.02-.246 0-.5.02-.745.02v-.165h.076c.378 0 .493-.257.493-.694v-2.308c0-.306-.253-.492-.5-.492h-.07v-.164c.207 0 .42.022.63.022.164 0 .323-.022.487-.022l2.44 2.743" fill="#1A1918"/><path d="M19.483 39.018l-.226-.007-2.78-3.097v2.195c.006.476.08.61.49.617h.12v.21h-.026c-.236 0-.472-.02-.705-.02-.246 0-.497.02-.746.02h-.025v-.21h.1c.364-.002.467-.235.47-.67v-2.308c0-.29-.24-.47-.474-.47h-.095v-.21h.024c.21 0 .423.02.63.02.162 0 .32-.02.505-.012l2.408 2.71v-2.016c-.003-.435-.293-.488-.453-.492h-.145v-.212h.024c.258 0 .51.02.766.02.223 0 .448-.02.675-.02h.025v.212h-.106c-.227.006-.46.026-.466.672v2.492c0 .19.006.383.032.55l.005.026h-.027zm-.208-.047h.18c-.023-.164-.028-.346-.028-.528V35.95c0-.658.276-.72.512-.72h.057v-.116c-.216 0-.433.02-.65.02-.25 0-.495-.02-.743-.02v.116h.096c.17 0 .5.075.5.54l-.007 2.07-.01.01-.02.018-2.436-2.754c-.163 0-.32.02-.488.02-.202 0-.408-.02-.606-.02v.116h.047c.258 0 .523.197.523.517v2.307c0 .438-.122.718-.517.72l-.052-.002v.117c.237-.002.48-.023.72-.023.23 0 .457.02.683.022v-.117h-.07c-.43 0-.537-.19-.537-.665V35.79l2.845 3.18zm-.11-1.137l.018-.015-.017.015zm-.012-.01v-.002l-.004-.003.003.006zM20.842 35.364c-.412 0-.428.1-.51.498h-.164c.02-.153.048-.306.065-.465.022-.154.033-.307.033-.465h.132c.044.164.18.158.33.158h2.825c.15 0 .286-.005.297-.17l.13.023c-.02.147-.043.295-.06.443-.01.148-.01.295-.01.443l-.164.06c-.01-.202-.04-.526-.406-.526h-.898v2.913c0 .423.192.47.454.47H23v.166c-.213 0-.597-.02-.892-.02-.33 0-.713.02-.927.02v-.165h.106c.302 0 .454-.027.454-.46v-2.924h-.898" fill="#1A1918"/><path d="M23 38.936c-.215 0-.598-.02-.892-.02-.33 0-.712.02-.927.02h-.022v-.21h.128c.302-.008.423-.012.43-.437v-2.903h-.874v-.048h.92v2.95c0 .44-.176.483-.476.483h-.08v.116c.215-.002.584-.023.902-.023.285 0 .65.02.868.022v-.117h-.08c-.265 0-.478-.065-.478-.496V35.34h.922c.368 0 .417.313.428.517l.12-.044c0-.143 0-.286.01-.43.015-.142.035-.28.056-.42l-.083-.015c-.025.16-.18.168-.317.166H20.7c-.13 0-.27-.006-.32-.16h-.09c0 .152-.012.3-.032.445-.017.15-.042.294-.062.44h.117c.072-.383.12-.506.53-.5v.047c-.407.008-.398.076-.488.48l-.004.02h-.21l.003-.03c.022-.152.05-.306.066-.465.022-.152.032-.304.032-.46v-.025h.174l.005.017c.038.14.14.14.28.142h2.853c.153-.002.264-.004.273-.148l.002-.026.025.005.155.025-.004.024c-.022.147-.043.294-.06.44-.01.148-.01.295-.01.443v.016l-.016.006-.194.07v-.03c-.016-.207-.037-.505-.384-.505h-.874v2.89c.005.413.17.442.43.448h.13v.21H23M24.156 38.748h.077c.197 0 .406-.027.406-.312v-2.87c0-.284-.21-.31-.407-.31h-.077v-.166c.333 0 .904.022 1.364.022.46 0 1.03-.022 1.402-.022-.01.235-.004.598.012.838l-.165.044c-.027-.356-.093-.64-.67-.64h-.76v1.434h.65c.33 0 .402-.186.434-.482h.164c-.01.214-.016.427-.016.64 0 .21.005.417.016.625l-.164.032c-.032-.328-.05-.542-.427-.542h-.656v1.275c0 .357.317.357.668.357.658 0 .948-.044 1.112-.668l.153.038c-.07.29-.136.58-.186.87-.35 0-.98-.02-1.473-.02-.494 0-1.146.02-1.458.02v-.164" fill="#1A1918"/><path d="M27.087 38.936c-.35 0-.982-.023-1.474-.023-.493 0-1.144.023-1.457.023h-.023v-.21h.1c.198-.005.38-.022.38-.29v-2.87c0-.267-.182-.284-.38-.288h-.1v-.212h.023c.334 0 .904.02 1.364.02.46 0 1.03-.02 1.402-.02h.024v.025c-.004.083-.006.18-.006.284 0 .19.006.396.016.552v.02l-.017.005-.194.052v-.028c-.033-.356-.08-.614-.645-.62h-.737v1.388h.628c.317-.004.373-.165.41-.46l.002-.022h.21v.025c-.01.214-.017.426-.017.64 0 .207.007.415.017.623v.02l-.02.004-.19.038v-.025c-.04-.335-.042-.518-.405-.522h-.634v1.252c0 .333.288.33.645.333.66-.004.924-.036 1.09-.65l.004-.022.023.003.176.045-.004.023c-.07.29-.136.58-.186.87l-.004.018h-.02zm-.02-.047c.048-.278.11-.554.177-.83l-.108-.027c-.164.612-.482.667-1.128.663-.346 0-.69 0-.693-.38v-1.3h.682c.382-.004.42.227.448.538l.12-.024c-.012-.202-.017-.405-.017-.605 0-.206.005-.41.016-.618h-.12c-.03.286-.12.486-.453.482h-.675v-1.483h.786c.57-.005.665.29.69.635l.118-.032c-.01-.155-.016-.353-.016-.536 0-.094.003-.183.006-.26-.372 0-.928.02-1.378.02-.45 0-1.005-.02-1.34-.02v.116h.053c.195 0 .428.034.43.337v2.87c-.002.302-.235.335-.43.336h-.053v.116c.32-.002.952-.023 1.433-.023.484 0 1.1.02 1.454.022zM28.013 35.67c0-.4-.22-.416-.39-.416h-.098v-.164c.175 0 .515.022.85.022.328 0 .59-.022.88-.022.69 0 1.306.186 1.306.964 0 .493-.328.793-.76.964l.935 1.4c.154.233.263.298.532.33v.165c-.18 0-.356-.02-.537-.02-.17 0-.345.02-.514.02-.423-.553-.785-1.144-1.14-1.775h-.362v1.173c0 .422.197.438.448.438h.1v.165c-.313 0-.63-.02-.943-.02-.264 0-.52.02-.795.02v-.165h.1c.202 0 .388-.092.388-.295V35.67zm.7 1.27h.27c.548 0 .843-.207.843-.854 0-.487-.312-.8-.8-.8-.165 0-.235.018-.312.023v1.63z" fill="#1A1918"/><path d="M31.267 38.936c-.184 0-.358-.022-.538-.022-.168 0-.343.022-.534.013-.42-.55-.78-1.14-1.134-1.764h-.324v1.147c.006.412.17.41.424.415h.123v.21h-.024c-.312 0-.63-.02-.94-.02-.263 0-.52.02-.795.02H27.5v-.21h.124c.197-.002.363-.088.364-.272V35.67c-.004-.388-.194-.386-.364-.392H27.5v-.212h.025c.177 0 .515.02.85.02.326 0 .59-.02.88-.02.692.002 1.328.192 1.33.987 0 .494-.327.803-.75.976l.92 1.376c.153.228.25.284.515.32l.02.002v.208h-.023zm-2.553-1.822h.375l.005.012c.357.63.717 1.22 1.12 1.763.167 0 .343-.023.514-.023.174 0 .343.02.513.022v-.12c-.257-.033-.377-.11-.527-.337l-.954-1.426.027-.01c.428-.17.746-.462.747-.944 0-.76-.592-.936-1.28-.94-.29 0-.553.023-.883.023-.32 0-.647-.02-.826-.022v.116h.076c.17 0 .412.03.412.44v2.783c0 .22-.206.32-.412.32h-.076v.116c.264-.002.514-.023.77-.023.307 0 .616.02.92.022v-.117h-.076c-.25 0-.472-.03-.472-.463v-1.196h.024zm0-.15h-.024v-1.677l.02-.002c.076-.006.15-.02.315-.02.5 0 .824.323.825.823-.002.654-.315.876-.868.876h-.268zm.268-.047c.542-.005.816-.193.82-.83-.002-.478-.3-.775-.777-.777-.147 0-.217.014-.287.02v1.587h.244zM34.987 37.833l.01-.01V35.77c0-.45-.312-.516-.476-.516h-.12v-.164c.258 0 .51.022.768.022.225 0 .448-.022.674-.022v.164h-.082c-.23 0-.488.044-.488.696v2.492c0 .192.006.383.033.553h-.208l-2.82-3.144v2.258c0 .477.09.64.513.64h.093v.165c-.235 0-.47-.02-.707-.02-.247 0-.5.02-.745.02v-.165h.077c.38 0 .494-.257.494-.694v-2.308c0-.306-.25-.492-.498-.492h-.07v-.164c.207 0 .422.022.63.022.162 0 .322-.022.487-.022l2.437 2.743" fill="#1A1918"/><path d="M35.304 39.018l-.225-.007-2.782-3.097v2.195c.007.477.08.61.492.617h.116v.21h-.024c-.237 0-.472-.022-.707-.022-.244 0-.497.023-.744.023h-.024v-.21h.1c.363-.003.467-.236.47-.673v-2.307c0-.29-.24-.468-.474-.468h-.096v-.212h.025c.21 0 .425.02.63.02.162 0 .32-.02.505-.013l2.41 2.71V35.77c-.003-.435-.295-.49-.454-.492h-.144v-.212h.024c.26 0 .512.02.768.02.223 0 .447-.02.673-.02h.026v.212h-.106c-.226.006-.46.026-.465.672v2.492c0 .19.005.38.033.55l.003.026h-.026zm-.207-.047h.18c-.025-.163-.03-.346-.03-.528V35.95c0-.658.278-.72.513-.72h.057v-.116c-.215 0-.432.02-.65.02-.25 0-.495-.02-.743-.02v.116h.097c.17 0 .502.075.502.54l-.008 2.07-.01.01-.017.018-2.438-2.754c-.164 0-.323.02-.49.02-.202 0-.407-.02-.606-.02v.116h.048c.258 0 .522.196.522.516v2.307c0 .44-.124.72-.517.72h-.053v.116c.237-.002.48-.023.72-.023.23 0 .46.02.685.022v-.117h-.07c-.43 0-.54-.188-.54-.665V35.79l2.847 3.18zm-.11-1.137l.017-.015-.017.015zm-.013-.01v-.002l-.004-.003.004.006zM36.723 38.13c-.055.185-.12.33-.12.427 0 .164.23.19.41.19h.06v.166c-.22-.012-.443-.02-.663-.02-.197 0-.393.008-.59.02v-.165h.032c.213 0 .395-.126.476-.356l.877-2.513c.07-.204.17-.478.203-.68.175-.06.395-.17.498-.236.017-.006.028-.01.044-.01.017 0 .027 0 .04.016.015.043.03.093.048.136l1.01 2.865c.064.192.13.395.2.56.066.154.182.218.363.218h.034v.165c-.247-.012-.494-.02-.756-.02-.27 0-.543.008-.823.02v-.165h.06c.126 0 .34-.02.34-.158 0-.07-.05-.22-.11-.395l-.213-.635h-1.244l-.175.57zm.8-2.426h-.01l-.51 1.55h1.023l-.503-1.55z" fill="#1A1918"/><path d="M39.642 38.936c-.246-.01-.493-.023-.754-.023-.27 0-.542.013-.822.023l-.025.002v-.214h.086c.127 0 .315-.03.315-.134.003-.063-.047-.213-.107-.387l-.21-.62h-1.207l-.17.554c-.056.186-.122.33-.12.42 0 .134.205.167.387.167h.084v.214l-.025-.002c-.22-.01-.442-.023-.662-.023-.195 0-.393.013-.59.023l-.025.002v-.214h.057c.204 0 .374-.117.453-.34l.877-2.513c.07-.202.17-.475.218-.693.172-.06.392-.17.497-.235.016-.006.03-.013.053-.013.013-.002.043.002.06.03l.05.14 1.01 2.863c.064.192.13.394.2.557.064.146.165.203.34.204h.056v.214l-.024-.002zm-1.553-.048c.27-.01.536-.02.798-.02.254 0 .493.01.73.02v-.115h-.007c-.187 0-.316-.073-.383-.234-.072-.167-.138-.37-.203-.562l-1.01-2.864c-.015-.044-.03-.093-.045-.132-.007-.005-.005-.005-.01-.005h-.01c-.01 0-.018.003-.032.007-.105.068-.325.176-.488.22-.033.206-.132.48-.203.683L36.35 38.4c-.083.238-.276.373-.498.373h-.01v.115c.19-.01.378-.02.568-.02.212 0 .428.01.638.02v-.115h-.035c-.18-.003-.428-.022-.435-.216 0-.11.068-.25.122-.434l.023.007-.023-.008.18-.585h1.278l.22.65c.06.177.11.323.11.403-.008.167-.238.18-.362.183h-.037v.115zm-1.12-1.61l.524-1.6h.03v.026h-.007.006v-.025h.016l.52 1.597h-1.09zm.065-.05h.96l-.478-1.466-.482 1.467zm.464-1.517l.012-.003-.013.004zM39.885 35.364c-.41 0-.428.1-.51.498h-.165c.02-.153.05-.306.066-.465.022-.154.032-.307.032-.465h.133c.044.164.18.158.33.158h2.827c.147 0 .284-.005.295-.17l.13.023-.06.443c-.01.148-.01.295-.01.443l-.164.06c-.01-.202-.038-.526-.406-.526h-.898v2.913c0 .423.192.47.455.47h.103v.166c-.214 0-.597-.02-.893-.02-.328 0-.713.02-.926.02v-.165h.104c.302 0 .455-.027.455-.46v-2.924h-.898" fill="#1A1918"/><path d="M42.043 38.936c-.215 0-.6-.02-.894-.02-.328 0-.71.02-.926.02H40.2v-.21h.128c.302-.008.423-.012.43-.437v-2.903h-.873v-.048h.92v2.95c0 .44-.176.482-.477.483h-.08v.116c.216-.002.584-.023.9-.023.288 0 .655.02.87.022v-.117h-.08c-.264 0-.477-.065-.477-.496V35.34h.922c.37 0 .417.313.427.517l.118-.044c0-.143 0-.286.012-.43.015-.14.036-.28.056-.42l-.083-.015c-.025.16-.18.168-.316.166H39.74c-.128 0-.268-.006-.318-.16h-.09c0 .152-.01.3-.033.445-.016.15-.042.295-.063.44h.118c.072-.383.12-.507.53-.5v.047c-.407.007-.398.076-.487.48l-.004.02h-.212l.004-.028c.023-.155.05-.31.066-.466.022-.154.032-.306.032-.462v-.025h.174l.005.017c.038.14.138.14.278.142h2.857c.15-.002.262-.004.272-.147v-.028l.025.005.156.025-.003.024c-.023.147-.044.294-.06.44-.01.148-.01.295-.01.443v.016l-.017.006-.194.07v-.03c-.015-.207-.037-.505-.384-.505h-.874v2.89c.005.413.17.442.43.448h.128v.21h-.023M43.226 38.748h.076c.198 0 .405-.027.405-.312v-2.87c0-.284-.207-.31-.405-.31h-.076v-.166c.213 0 .542.022.81.022.274 0 .603-.022.86-.022v.165h-.076c-.198 0-.406.027-.406.312v2.87c0 .284.208.31.406.31h.077v.166c-.263 0-.592-.02-.866-.02-.268 0-.59.02-.804.02v-.165" fill="#1A1918"/><path d="M44.897 38.936c-.265 0-.592-.023-.866-.023-.267 0-.59.023-.804.023h-.024v-.21h.1c.198-.005.38-.022.38-.29v-2.87c0-.267-.182-.284-.38-.288h-.1v-.212h.024c.214 0 .543.02.81.02.273 0 .602-.02.86-.02h.024v.212h-.1c-.2.004-.38.02-.382.29v2.868c.002.268.182.285.382.29h.1v.21h-.023zm-.025-.047v-.117h-.052c-.196 0-.43-.034-.43-.337v-2.87c0-.302.234-.336.43-.336h.052v-.116c-.252 0-.57.02-.836.02-.26 0-.574-.02-.787-.02v.116h.053c.194 0 .428.034.428.337v2.87c0 .302-.233.336-.427.336h-.054v.116c.21-.003.52-.023.78-.023.267 0 .584.02.842.022zM47.082 35.008c1.168 0 2.1.724 2.1 1.89 0 1.26-.905 2.097-2.072 2.097-1.162 0-2.05-.79-2.05-1.966 0-1.14.883-2.022 2.022-2.022m.083 3.746c1.063 0 1.25-.937 1.25-1.736 0-.8-.433-1.77-1.343-1.77-.96 0-1.244.855-1.244 1.59 0 .98.45 1.916 1.337 1.916" fill="#1A1918"/><path d="M45.036 37.03c.003-1.153.895-2.044 2.046-2.046v.048c-1.127 0-1.998.87-2 1.997.003 1.163.878 1.94 2.028 1.94 1.155 0 2.046-.825 2.048-2.073 0-1.152-.917-1.864-2.076-1.865v-.048c1.176 0 2.12.732 2.123 1.913-.002 1.273-.917 2.12-2.095 2.12-1.172 0-2.07-.798-2.074-1.988m.768-.193c0-.737.29-1.613 1.267-1.613.932.003 1.366.99 1.368 1.794-.002.8-.19 1.758-1.273 1.758v-.046c1.042 0 1.223-.913 1.224-1.712 0-.793-.428-1.744-1.32-1.745-.94 0-1.216.834-1.22 1.564.002.975.447 1.892 1.315 1.893v.046c-.91 0-1.36-.953-1.36-1.94M52.873 37.833l.012-.01V35.77c0-.45-.314-.516-.478-.516h-.12v-.164c.258 0 .51.022.767.022.225 0 .45-.022.675-.022v.164h-.084c-.23 0-.488.044-.488.696v2.492c0 .192.006.383.034.553h-.21l-2.82-3.144v2.258c0 .477.092.64.513.64h.094v.165c-.236 0-.472-.02-.707-.02-.247 0-.5.02-.746.02v-.165h.077c.38 0 .493-.257.493-.694v-2.308c0-.306-.25-.492-.5-.492h-.07v-.164c.208 0 .422.022.63.022.165 0 .323-.022.488-.022l2.438 2.743" fill="#1A1918"/><path d="M53.192 39.018l-.227-.007-2.78-3.097v2.195c.006.477.078.61.49.616h.118v.212h-.023c-.238 0-.473-.022-.707-.022-.246 0-.498.022-.746.022h-.023v-.212h.1c.36 0 .465-.234.47-.67v-2.308c0-.29-.24-.468-.476-.468h-.094v-.212h.023c.21 0 .423.02.63.02.163 0 .32-.02.506-.01l2.408 2.708V35.77c0-.435-.293-.488-.453-.492h-.144v-.212h.025c.257 0 .51.02.765.02.224 0 .448-.02.676-.02h.022v.212h-.106c-.226.006-.46.027-.464.672v2.492c0 .19.005.383.03.55l.006.026h-.026zm-.21-.047h.18c-.022-.164-.028-.346-.028-.528V35.95c0-.66.277-.72.512-.72h.06v-.116c-.218 0-.434.02-.653.02-.25 0-.494-.02-.742-.02v.116h.097c.17 0 .5.076.5.54l-.006 2.07-.01.01-.017.018-2.438-2.754c-.162 0-.322.02-.488.02-.202 0-.408-.02-.607-.02v.116h.048c.258 0 .523.196.523.516v2.308c0 .438-.122.718-.516.72h-.054v.115c.238-.002.482-.023.723-.023.228 0 .455.02.683.022v-.117h-.07c-.43 0-.54-.188-.54-.665V35.79l2.847 3.18zm-.11-1.137l.02-.015-.02.015zm-.01-.01v-.002l-.006-.003.005.006zM54.61 38.13c-.055.185-.12.33-.12.427 0 .164.23.19.41.19h.06v.166c-.22-.012-.444-.02-.663-.02-.197 0-.394.008-.59.02v-.165h.03c.215 0 .397-.126.477-.356l.878-2.513c.07-.204.17-.478.202-.68.176-.06.394-.17.5-.236.015-.006.026-.01.043-.01.016 0 .027 0 .038.016.016.043.033.093.05.136l1.008 2.865c.065.192.13.395.203.56.065.154.18.218.36.218h.035v.165c-.246-.012-.493-.02-.756-.02-.268 0-.543.008-.822.02v-.165h.06c.126 0 .34-.02.34-.158 0-.07-.05-.22-.11-.395l-.214-.635h-1.243l-.176.57zm.8-2.426h-.01l-.512 1.55h1.026l-.504-1.55z" fill="#1A1918"/><path d="M57.528 38.936c-.247-.01-.493-.022-.754-.022-.267 0-.542.013-.82.022l-.026.002v-.213h.084c.127 0 .316-.03.316-.135.002-.063-.048-.212-.11-.387l-.207-.62H54.8l-.168.554c-.055.188-.12.33-.12.42 0 .134.206.168.387.168h.083v.213l-.025-.002c-.22-.01-.443-.022-.66-.022-.198 0-.394.013-.592.022l-.024.002v-.213h.055c.205 0 .375-.118.456-.34l.876-2.514c.07-.202.168-.475.216-.693.173-.06.393-.17.5-.235.013-.006.03-.012.05-.012.015-.002.044.002.06.032.017.043.034.093.05.137l1.01 2.863c.065.192.13.394.2.558.066.146.165.203.34.205h.057v.213l-.025-.002zm-1.553-.048c.27-.01.538-.02.8-.02.254 0 .492.01.73.02v-.115h-.01c-.184 0-.314-.073-.382-.234-.072-.167-.137-.37-.203-.56l-1.008-2.866-.047-.13c-.004-.007-.004-.007-.007-.007h-.01c-.013 0-.02.003-.032.007-.107.067-.326.177-.488.22-.034.206-.134.48-.204.683l-.878 2.513c-.083.238-.275.373-.5.373h-.007v.115c.188-.01.376-.02.567-.02.212 0 .43.01.64.02v-.115h-.038c-.18-.003-.43-.02-.436-.216.002-.11.07-.248.123-.434l.022.007-.023-.008.18-.585h1.277l.22.65c.06.177.11.323.11.403-.007.167-.238.18-.362.183h-.037v.115zm-1.12-1.61l.527-1.6h.028v.026h-.006.006v-.025h.017l.518 1.597h-1.09zm.067-.05h.958l-.476-1.465-.482 1.466zm.465-1.517l.01-.003-.01.004zM58.91 38.376c0 .22.153.285.33.308.223.016.47.016.723-.012.23-.028.427-.158.525-.296.087-.12.136-.274.17-.394h.16c-.062.312-.138.62-.204.93-.48 0-.965-.02-1.446-.02-.483 0-.965.02-1.447.02v-.164h.077c.198 0 .412-.027.412-.366v-2.815c0-.285-.215-.313-.413-.313h-.076v-.164c.29 0 .577.022.867.022.28 0 .553-.022.833-.022v.164h-.138c-.208 0-.37.006-.37.296v2.826" fill="#1A1918"/><path d="M60.614 38.936c-.483 0-.966-.022-1.446-.022-.482 0-.965.022-1.448.022h-.023v-.21h.1c.198-.006.386-.02.39-.344v-2.816c-.004-.267-.19-.284-.39-.288h-.1v-.212h.023c.292 0 .577.02.866.02.28 0 .552-.02.834-.02h.022v.212h-.16c-.212.006-.344-.004-.35.272v2.826c.003.205.137.26.308.284.096.006.2.01.304.01.134 0 .273-.006.415-.02.222-.028.414-.157.51-.287.083-.117.13-.268.164-.387l.005-.018h.205l-.004.03c-.06.312-.137.618-.203.93l-.005.018h-.018zm-.02-.047c.063-.298.135-.59.194-.885h-.113c-.033.12-.082.266-.168.386-.103.142-.305.276-.543.306-.143.014-.286.022-.42.022-.106 0-.21-.005-.31-.012-.177-.02-.35-.096-.35-.33V35.55c0-.304.194-.32.398-.32h.113v-.116c-.27 0-.536.022-.81.022-.282 0-.56-.02-.84-.022v.116h.052c.196 0 .435.034.435.336v2.816c0 .354-.238.39-.435.39h-.052v.117c.473-.002.947-.023 1.423-.023.476 0 .952.02 1.426.022zM60.75 34.935c.33 0 .577.253.577.578 0 .324-.247.575-.577.575-.33 0-.577-.25-.577-.575 0-.325.247-.578.577-.578zm0 1.046c.26 0 .456-.22.456-.467 0-.25-.195-.47-.456-.47-.26 0-.457.22-.457.47 0 .248.197.468.457.468zm-.287-.163v-.028c.07-.01.084-.01.084-.053v-.427c0-.06-.006-.08-.082-.078v-.03h.296c.102 0 .195.05.195.154 0 .086-.056.15-.136.174l.094.132c.044.06.095.117.127.136v.02h-.11c-.055 0-.103-.114-.21-.266h-.063v.19c0 .038.014.037.085.047v.027h-.28zm.194-.304h.068c.075 0 .11-.057.11-.148 0-.09-.054-.124-.113-.124h-.065v.273z" fill="#1A1918"/><path d="M26.527 15.755c0-5.123 4.155-9.276 9.28-9.276 5.125 0 9.28 4.152 9.28 9.275s-4.155 9.276-9.28 9.276c-5.125 0-9.28-4.152-9.28-9.275" fill="#FFF"/><path d="M41.42 15.572c-.005-2.375-1.49-4.4-3.583-5.203v10.405c2.093-.803 3.578-2.827 3.582-5.203zm-7.576 5.2V10.37c-2.09.805-3.575 2.828-3.58 5.202.005 2.374 1.49 4.397 3.58 5.2zM35.84 6.777c-4.86.002-8.796 3.94-8.797 8.796 0 4.857 3.938 8.793 8.798 8.794 4.86 0 8.8-3.937 8.8-8.794 0-4.857-3.94-8.794-8.8-8.796zm-.02 18.42c-5.318.025-9.695-4.28-9.695-9.523 0-5.73 4.377-9.692 9.695-9.69h2.492c5.255-.002 10.05 3.96 10.05 9.69 0 5.24-4.795 9.523-10.05 9.523H35.82z" fill="#0069AA"/></g></svg>