<svg width="76" height="45" viewBox="0 0 76 45" xmlns="http://www.w3.org/2000/svg"><title>Maestro-light</title><g fill="none" fill-rule="evenodd"><rect fill="#FFF" width="75.034" height="45" rx="3"/><path d="M62.77 22.488c0 8.29-6.697 15.012-14.96 15.012-8.263 0-14.96-6.72-14.96-15.012 0-8.292 6.697-15.013 14.96-15.013 8.263 0 14.96 6.72 14.96 15.013" fill="#C00"/><path d="M36.252 32.02c-.413-.5-.793-1.033-1.14-1.59h5.303c.32-.508.606-1.04.862-1.59H34.25c-.238-.513-.45-1.043-.632-1.588h8.292c.5-1.497.77-3.098.77-4.764 0-1.09-.117-2.155-.337-3.18h-9.157c.115-.54.262-1.07.434-1.59h8.29c-.183-.544-.395-1.074-.634-1.588h-7.023c.256-.55.544-1.08.862-1.59h5.3c-.347-.555-.73-1.085-1.14-1.59h-3.02c.464-.564.97-1.096 1.51-1.587-2.656-2.416-6.18-3.888-10.046-3.888-8.265 0-14.963 6.72-14.963 15.013 0 8.29 6.698 15.012 14.962 15.012 3.865 0 7.39-1.472 10.044-3.887.542-.492 1.047-1.025 1.512-1.592h-3.024" fill="#06C"/><path d="M37.55 26.545c-.638.17-1.257.253-1.91.25-2.086 0-3.172-.954-3.172-2.776 0-2.13 1.383-3.697 3.26-3.697 1.535 0 2.515.878 2.515 2.254 0 .457-.067.902-.23 1.53h-3.707c-.132.89.515 1.28 1.618 1.28.66 0 1.257-.118 1.92-.385l-.293 1.543zm-.996-3.694c0-.133.206-1.088-.867-1.11-.593 0-1.018.396-1.19 1.11h2.057zM38.807 22.434c0 .786.442 1.33 1.445 1.734.767.316.887.407.887.688 0 .39-.34.57-1.092.565-.565-.003-1.08-.072-1.69-.24l-.268 1.433c.54.126 1.3.168 1.972.183 2.002 0 2.927-.658 2.927-2.08 0-.855-.387-1.358-1.338-1.732-.795-.32-.888-.388-.888-.677 0-.338.315-.51.93-.51.37 0 .88.035 1.365.093l.27-1.442c-.493-.07-1.24-.124-1.673-.124-2.122 0-2.856.96-2.85 2.11M31.452 26.693h-1.556l.037-.653c-.474.515-1.106.756-1.963.756-1.015 0-1.71-.697-1.71-1.698 0-1.522 1.208-2.4 3.286-2.4.214 0 .485.016.764.047.058-.203.074-.29.074-.402 0-.416-.327-.57-1.202-.57-.862.004-1.444.132-1.983.277l.264-1.396c.934-.238 1.545-.33 2.236-.33 1.61 0 2.46.633 2.46 1.822.013.318-.097.955-.153 1.234-.063.406-.51 2.758-.555 3.313zm-1.366-2.777c-.197-.02-.282-.025-.417-.025-1.062 0-1.6.318-1.6.943 0 .393.262.64.67.64.764 0 1.314-.64 1.346-1.557zM46.266 26.595c-.51.14-.908.2-1.338.2-.953 0-1.473-.488-1.473-1.358-.03-.24.203-1.344.256-1.65.053-.31.878-4.81.878-4.81h1.852l-.28 1.49h.95l-.258 1.52h-.954s-.524 2.636-.524 2.838c0 .32.193.458.637.458.213 0 .376-.02.503-.058l-.247 1.37M54.54 20.323c-1.358 0-2.418.56-3.034 1.497l.535-1.388c-.984-.363-1.62.155-2.193.89 0 0-.097.123-.193.235v-1.09h-1.738c-.236 1.924-.652 3.877-.978 5.807l-.078.42h1.87c.177-.98.323-1.774.468-2.408.397-1.74 1.066-2.27 2.07-2.035-.232.5-.36 1.08-.36 1.72 0 1.554.842 2.826 2.93 2.826 2.11 0 3.635-1.13 3.635-3.706 0-1.554-1.017-2.767-2.934-2.767zm-.545 4.962c-.66.01-1.06-.546-1.06-1.378 0-.986.583-2.1 1.522-2.1.758 0 1.017.603 1.017 1.245 0 1.402-.573 2.233-1.48 2.233zM25.388 26.694h-1.862l1.106-5.85-2.548 5.85h-1.698l-.31-5.817-1.11 5.817h-1.69l1.44-7.61h2.91l.242 4.242 1.844-4.243h3.144l-1.468 7.61" fill="#006"/><path d="M38.018 26.076c-.64.17-1.257.253-1.91.25-2.086 0-3.172-.954-3.172-2.776 0-2.13 1.382-3.695 3.26-3.695 1.534 0 2.514.878 2.514 2.253 0 .457-.066.9-.228 1.53h-3.708c-.133.89.515 1.28 1.617 1.28.662 0 1.26-.118 1.92-.385l-.292 1.543zm-.997-3.693c0-.135.207-1.09-.865-1.11-.593 0-1.018.394-1.19 1.11h2.056zM39.275 21.965c0 .786.44 1.33 1.444 1.734.766.315.887.406.887.687 0 .39-.34.57-1.09.565-.566-.004-1.082-.073-1.69-.242l-.27 1.434c.54.126 1.3.167 1.972.183 2 0 2.926-.658 2.926-2.08 0-.855-.386-1.358-1.337-1.732-.796-.32-.89-.39-.89-.676 0-.34.316-.512.93-.512.373 0 .882.035 1.366.094l.27-1.443c-.49-.07-1.24-.125-1.67-.125-2.123 0-2.858.958-2.85 2.11M31.92 26.224h-1.557l.038-.653c-.473.516-1.105.756-1.963.756-1.014 0-1.71-.696-1.71-1.698 0-1.52 1.21-2.4 3.287-2.4.213 0 .484.017.764.047.058-.203.073-.29.073-.4 0-.418-.326-.57-1.2-.57-.862.003-1.444.13-1.984.277l.266-1.397c.933-.238 1.544-.33 2.236-.33 1.61 0 2.46.632 2.46 1.822.013.318-.098.954-.153 1.234-.063.407-.51 2.76-.555 3.314zm-1.366-2.777c-.197-.02-.283-.025-.418-.025-1.06 0-1.6.316-1.6.94 0 .395.264.64.673.64.76 0 1.312-.64 1.344-1.555zM46.734 26.126c-.51.14-.908.2-1.34.2-.952 0-1.472-.488-1.472-1.358-.03-.24.203-1.344.256-1.65.053-.31.878-4.81.878-4.81h1.85l-.278 1.49h.95l-.26 1.52h-.953s-.523 2.636-.523 2.837c0 .32.193.46.636.46.212 0 .376-.02.503-.06l-.246 1.37M55.942 22.582c0 1.404-.573 2.234-1.48 2.234-.66.01-1.06-.546-1.06-1.378 0-.986.584-2.1 1.522-2.1.758 0 1.018.602 1.018 1.244zm2 .04c0-1.554-1.02-2.767-2.935-2.767-2.204 0-3.63 1.474-3.63 3.646 0 1.555.84 2.827 2.93 2.827 2.108 0 3.634-1.13 3.634-3.706zM48.383 19.996c-.235 1.926-.652 3.88-.977 5.81l-.08.42h1.87c.675-3.728.9-4.79 2.314-4.416l.68-1.763c-.986-.363-1.62.155-2.194.89.052-.33.15-.65.126-.94h-1.74M25.856 26.225h-1.862l1.106-5.85-2.548 5.85h-1.698l-.31-5.817-1.11 5.817h-1.69l1.438-7.61h2.91l.155 4.71 2.05-4.71h3.027l-1.468 7.61" fill="#FFF"/></g></svg>