<svg width="76" height="45" viewBox="0 0 76 45" xmlns="http://www.w3.org/2000/svg"><title>MasterCard-light</title><g transform="translate(.054)" fill="none" fill-rule="evenodd"><rect fill="#FFF" width="75.034" height="45" rx="3"/><path d="M42.115 22.864c0 8.084-6.555 14.636-14.642 14.636S12.83 30.948 12.83 22.864c0-8.083 6.556-14.636 14.643-14.636s14.642 6.553 14.642 14.636" fill="#C00"/><path d="M47.132 8.228c-3.785 0-7.232 1.434-9.83 3.788-.53.48-1.023.998-1.48 1.55h2.96c.404.49.776 1.008 1.116 1.55h-5.19c-.312.497-.594 1.014-.845 1.55h6.878c.236.502.443 1.018.62 1.55h-8.117c-.17.504-.312 1.02-.425 1.55h8.968c.215.998.33 2.035.33 3.098 0 1.625-.266 3.19-.755 4.65h-8.117c.178.53.385 1.048.62 1.55h6.878c-.25.534-.53 1.052-.843 1.55h-5.19c.338.54.71 1.057 1.116 1.55h2.958c-.454.55-.948 1.07-1.478 1.548 2.6 2.354 6.045 3.788 9.83 3.788 8.087 0 14.642-6.552 14.642-14.636 0-8.083-6.555-14.636-14.642-14.636" fill="#F90"/><path d="M24.053 24.466c-.166-.018-.24-.024-.355-.024-.9 0-1.356.31-1.356.92 0 .375.222.614.57.614.647 0 1.114-.616 1.14-1.51zm1.157 2.69h-1.318l.03-.625c-.4.495-.937.73-1.666.73-.86 0-1.452-.67-1.452-1.648 0-1.47 1.027-2.328 2.79-2.328.182 0 .413.017.65.047.048-.2.06-.283.06-.39 0-.4-.276-.55-1.018-.55-.778-.008-1.42.185-1.683.272l.22-1.358c.792-.233 1.315-.32 1.903-.32 1.365 0 2.088.613 2.087 1.77.003.31-.05.693-.13 1.197-.137.875-.433 2.75-.473 3.207zM20.14 27.157h-1.59l.91-5.707-2.034 5.707h-1.083l-.134-5.675-.958 5.675h-1.488l1.243-7.424h2.286l.138 4.155 1.396-4.155h2.542l-1.23 7.424M49.096 24.466c-.167-.018-.24-.024-.354-.024-.902 0-1.357.31-1.357.92 0 .375.222.614.57.614.647 0 1.114-.616 1.14-1.51zm1.157 2.69h-1.317l.03-.625c-.402.495-.938.73-1.666.73-.862 0-1.452-.67-1.452-1.648 0-1.47 1.027-2.328 2.79-2.328.18 0 .41.017.648.047.05-.2.062-.283.062-.39 0-.4-.277-.55-1.02-.55-.777-.008-1.418.185-1.683.272.018-.1.222-1.358.222-1.358.792-.233 1.315-.32 1.902-.32 1.365 0 2.087.613 2.086 1.77.003.31-.05.693-.13 1.197-.136.875-.433 2.75-.473 3.207zM32.274 27.065c-.435.137-.774.196-1.142.196-.812 0-1.256-.466-1.256-1.325-.01-.267.117-.97.218-1.61.092-.564.69-4.12.69-4.12h1.58l-.185.914h.953l-.215 1.45h-.958c-.183 1.148-.445 2.58-.448 2.768 0 .312.166.448.545.448.18 0 .32-.02.428-.057l-.21 1.335M37.12 27.016c-.544.166-1.067.247-1.622.245-1.77 0-2.69-.924-2.69-2.692 0-2.064 1.172-3.584 2.764-3.584 1.303 0 2.135.85 2.135 2.185 0 .442-.057.874-.195 1.484h-3.146c-.107.876.454 1.24 1.374 1.24.565 0 1.075-.116 1.642-.38l-.263 1.502zm-.89-3.58c.01-.125.168-1.077-.735-1.077-.502 0-.863.383-1.01 1.077h1.746zM26.163 23.028c0 .763.37 1.29 1.21 1.686.644.302.744.392.744.666 0 .376-.284.546-.913.546-.474 0-.915-.074-1.424-.238l-.22 1.394c.362.08.685.152 1.656.18 1.677 0 2.452-.64 2.452-2.02 0-.828-.324-1.315-1.12-1.682-.667-.305-.744-.374-.744-.655 0-.327.264-.494.778-.494.312 0 .738.035 1.142.092l.226-1.4c-.41-.066-1.035-.118-1.4-.118-1.777 0-2.393.928-2.387 2.044M44.85 21.144c.442 0 .854.114 1.42.4l.262-1.61c-.234-.092-1.054-.63-1.748-.63-1.063 0-1.964.53-2.595 1.4-.924-.306-1.304.31-1.77.926l-.412.096c.03-.202.06-.403.05-.607H38.6c-.2 1.868-.552 3.76-.83 5.63l-.07.407h1.59c.265-1.724.41-2.828.498-3.575l.6-.332c.09-.333.37-.445.93-.432-.073.394-.113.81-.113 1.238 0 1.975 1.068 3.205 2.778 3.205.442 0 .82-.057 1.407-.216l.28-1.692c-.53.26-.96.38-1.35.38-.926 0-1.485-.68-1.485-1.808 0-1.635.83-2.78 2.02-2.78M58.31 19.733l-.354 2.145c-.434-.572-.9-.986-1.517-.986-.803 0-1.533.608-2.01 1.503-.667-.138-1.355-.373-1.355-.373v.006c.052-.5.075-.805.07-.91h-1.46c-.2 1.87-.553 3.763-.83 5.633l-.072.407h1.59c.215-1.394.38-2.552.5-3.47.544-.49.816-.918 1.364-.89-.243.588-.385 1.265-.385 1.96 0 1.508.764 2.504 1.92 2.504.582 0 1.03-.2 1.465-.665l-.075.56h1.505l1.21-7.422H58.31zm-1.988 6.03c-.542 0-.815-.402-.815-1.19 0-1.188.512-2.03 1.232-2.03.546 0 .842.416.842 1.183 0 1.197-.52 2.036-1.26 2.036z" fill="#006"/><path d="M20.596 26.716h-1.59l.912-5.707-2.034 5.706H16.8l-.133-5.673-.957 5.673h-1.488l1.243-7.423h2.286l.065 4.595 1.542-4.595h2.47l-1.23 7.423M24.51 24.027c-.166-.02-.24-.025-.354-.025-.9 0-1.357.31-1.357.92 0 .374.222.614.57.614.647 0 1.113-.616 1.14-1.51zm1.157 2.69H24.35l.03-.626c-.402.495-.938.73-1.666.73-.86 0-1.452-.672-1.452-1.65 0-1.47 1.027-2.326 2.79-2.326.18 0 .412.017.65.047.048-.198.06-.283.06-.39 0-.4-.276-.55-1.018-.55-.778-.01-1.42.185-1.683.27l.22-1.356c.793-.233 1.316-.32 1.904-.32 1.365 0 2.088.613 2.086 1.77.003.31-.048.694-.128 1.197-.138.874-.435 2.75-.475 3.206zM46.99 19.493l-.262 1.61c-.567-.285-.978-.4-1.42-.4-1.186 0-2.02 1.147-2.02 2.782 0 1.127.56 1.807 1.485 1.807.39 0 .824-.12 1.35-.38l-.28 1.69c-.585.16-.963.22-1.404.22-1.713 0-2.78-1.23-2.78-3.206 0-2.654 1.475-4.51 3.582-4.51.694 0 1.514.295 1.747.387M49.553 24.027c-.166-.02-.24-.025-.354-.025-.9 0-1.357.31-1.357.92 0 .374.222.614.57.614.646 0 1.114-.616 1.14-1.51zm1.157 2.69h-1.317l.03-.626c-.402.495-.938.73-1.665.73-.863 0-1.453-.672-1.453-1.65 0-1.47 1.027-2.326 2.79-2.326.18 0 .412.017.648.047.05-.198.062-.283.062-.39 0-.4-.276-.55-1.02-.55-.776-.01-1.417.185-1.68.27.015-.1.22-1.356.22-1.356.79-.233 1.313-.32 1.9-.32 1.366 0 2.09.613 2.088 1.77.003.31-.048.694-.128 1.197-.138.874-.434 2.75-.475 3.206zM32.732 26.625c-.435.136-.775.196-1.142.196-.813 0-1.257-.466-1.257-1.325-.01-.268.118-.97.22-1.61.09-.564.688-4.12.688-4.12h1.58l-.184.914h.812l-.216 1.45h-.814c-.184 1.15-.445 2.578-.45 2.768 0 .312.168.447.546.447.18 0 .32-.018.43-.057l-.212 1.337M37.577 26.577c-.543.166-1.067.244-1.622.244-1.77 0-2.69-.924-2.69-2.692 0-2.065 1.172-3.584 2.764-3.584 1.303 0 2.135.85 2.135 2.186 0 .442-.058.874-.195 1.484h-3.147c-.106.876.455 1.24 1.374 1.24.565 0 1.075-.116 1.643-.38l-.263 1.503zm-.888-3.58c.008-.127.167-1.078-.736-1.078-.503 0-.864.383-1.01 1.076h1.745zM26.62 22.587c0 .765.37 1.29 1.21 1.687.645.302.745.392.745.666 0 .376-.284.546-.914.546-.473 0-.914-.073-1.423-.237l-.218 1.392c.36.08.682.15 1.653.18 1.677 0 2.452-.64 2.452-2.02 0-.83-.324-1.316-1.12-1.68-.667-.307-.744-.375-.744-.657 0-.327.266-.495.78-.495.31 0 .738.035 1.142.092l.226-1.4c-.412-.065-1.036-.118-1.4-.118-1.778 0-2.393.928-2.388 2.043M59.124 26.716H57.62l.075-.562c-.436.466-.883.667-1.466.667-1.156 0-1.92-.994-1.92-2.505 0-2.008 1.185-3.7 2.586-3.7.617 0 1.084.25 1.518.823l.353-2.145h1.568l-1.21 7.423zM56.78 25.32c.74 0 1.26-.837 1.26-2.033 0-.767-.297-1.184-.843-1.184-.72 0-1.233.84-1.233 2.03 0 .79.274 1.188.815 1.188zM52.142 20.68c-.2 1.868-.552 3.76-.83 5.63l-.07.406h1.59c.568-3.692.704-4.412 1.597-4.322.14-.756.405-1.418.602-1.75-.666-.14-1.038.236-1.525.95.04-.31.11-.61.096-.915h-1.46M39.056 20.68c-.2 1.868-.553 3.76-.83 5.63l-.072.406h1.59c.57-3.692.706-4.412 1.597-4.322.144-.756.41-1.418.605-1.75-.665-.14-1.037.236-1.524.95.04-.31.11-.61.096-.915h-1.46" fill="#FFF"/></g></svg>