<svg width="76" height="46" viewBox="0 0 76 46" xmlns="http://www.w3.org/2000/svg"><title>Paypal-light</title><g transform="matrix(1 0 0 -1 0 45.75)" fill="none" fill-rule="evenodd"><rect fill="#FFF" x=".141" y=".115" width="75.034" height="45" rx="3"/><path d="M46.17 25.313c-.202-1.323-1.213-1.323-2.19-1.323h-.557l.39 2.47c.023.15.152.26.303.26h.256c.665 0 1.294 0 1.618-.38.194-.226.252-.563.18-1.027m-.426 3.452h-3.688c-.252 0-.466-.184-.506-.433l-1.49-9.45c-.03-.187.114-.356.302-.356h1.893c.176 0 .326.13.354.303l.422 2.678c.04.25.254.433.506.433h1.166c2.43 0 3.83 1.175 4.197 3.504.166 1.018.008 1.82-.47 2.38-.523.615-1.453.94-2.686.94" fill="#0079C1"/><path d="M19.87 25.313c-.202-1.323-1.213-1.323-2.19-1.323h-.557l.39 2.47c.023.15.152.26.303.26h.256c.665 0 1.294 0 1.618-.38.194-.226.252-.563.18-1.027m-.426 3.452h-3.688c-.252 0-.466-.184-.506-.433l-1.49-9.45c-.03-.187.114-.356.302-.356h1.76c.253 0 .468.184.507.432l.402 2.55c.04.25.254.433.506.433h1.166c2.43 0 3.83 1.175 4.197 3.504.166 1.018.008 1.82-.47 2.38-.523.615-1.453.94-2.686.94M28.004 21.92c-.17-1.008-.97-1.686-1.993-1.686-.51 0-.92.165-1.184.477-.26.31-.36.75-.277 1.24.158 1 .972 1.7 1.978 1.7.5 0 .908-.168 1.177-.482.27-.317.377-.76.3-1.248m2.46 3.435H28.7c-.152 0-.28-.11-.304-.26l-.078-.493-.123.18c-.383.554-1.235.74-2.086.74-1.952 0-3.618-1.478-3.942-3.55-.17-1.035.07-2.023.657-2.712.54-.634 1.307-.897 2.224-.897 1.57 0 2.443 1.01 2.443 1.01l-.08-.492c-.028-.185.116-.354.305-.354h1.59c.252 0 .467.183.506.432L30.77 25c.028.186-.116.355-.305.355" fill="#00457C"/><path d="M54.304 21.92c-.17-1.008-.97-1.686-1.993-1.686-.51 0-.92.165-1.184.477-.262.31-.36.75-.277 1.24.158 1 .972 1.7 1.978 1.7.5 0 .908-.168 1.177-.482.27-.317.377-.76.3-1.248m2.46 3.435H55c-.152 0-.28-.11-.304-.26l-.078-.493-.124.18c-.382.554-1.234.74-2.085.74-1.952 0-3.618-1.478-3.942-3.55-.17-1.035.07-2.023.657-2.712.54-.634 1.307-.897 2.224-.897 1.57 0 2.443 1.01 2.443 1.01l-.08-.492c-.028-.185.116-.354.305-.354h1.59c.252 0 .467.183.506.432L57.07 25c.028.186-.116.355-.305.355" fill="#0079C1"/><path d="M39.87 25.355h-1.776c-.17 0-.328-.084-.423-.225l-2.448-3.604-1.037 3.464c-.065.216-.265.365-.49.365H31.95c-.21 0-.36-.207-.29-.406l1.953-5.735-1.838-2.592c-.144-.204 0-.485.25-.485H33.8c.166 0 .324.082.42.22l5.902 8.515c.14.204-.005.482-.253.482" fill="#00457C"/><path d="M58.846 28.505l-1.513-9.624c-.03-.185.114-.354.303-.354h1.522c.252 0 .467.184.506.433l1.493 9.45c.03.186-.115.354-.304.354H59.15c-.152 0-.28-.11-.304-.26" fill="#0079C1"/></g></svg>