<svg width="76" height="45" viewBox="0 0 76 45" xmlns="http://www.w3.org/2000/svg"><title>Visa-light</title><g fill="none" fill-rule="evenodd"><rect fill="#FFF" width="75.034" height="45" rx="3"/><path d="M31.13 29.66l2.31-14.305h3.686L34.82 29.66h-3.69M48.196 15.706c-.73-.287-1.876-.6-3.304-.6-3.646 0-6.213 1.94-6.234 4.72-.023 2.057 1.83 3.204 3.23 3.887 1.437.7 1.92 1.15 1.914 1.775-.01.958-1.147 1.397-2.208 1.397-1.476 0-2.26-.216-3.473-.75l-.474-.227-.515 3.202c.86.398 2.455.744 4.11.762 3.874 0 6.392-1.918 6.42-4.886.015-1.63-.968-2.867-3.096-3.887-1.29-.665-2.08-1.104-2.07-1.775 0-.595.667-1.23 2.112-1.23 1.206-.02 2.08.258 2.76.548l.33.164.5-3.1M53.107 24.588c.305-.822 1.47-3.998 1.47-3.998-.023.037.303-.83.49-1.365l.248 1.234s.708 3.413.853 4.128h-3.06zm4.55-9.22h-2.85c-.885 0-1.546.254-1.933 1.187l-5.477 13.11h3.873s.632-1.764.776-2.15l4.723.007c.11.5.448 2.143.448 2.143h3.423L57.657 15.37zM28.038 15.367l-3.61 9.753-.387-1.983c-.67-2.284-2.765-4.76-5.107-6l3.302 12.51 3.903-.002 5.808-14.278h-3.908" fill="#26337A"/><path d="M21.077 15.357H15.13l-.05.296c4.63 1.185 7.69 4.046 8.96 7.484l-1.29-6.573c-.224-.907-.872-1.175-1.673-1.207" fill="#ED982D"/></g></svg>