<svg width="76" height="45" viewBox="0 0 76 45" xmlns="http://www.w3.org/2000/svg"><title>Cirrus-light</title><g fill="none" fill-rule="evenodd"><rect fill="#FFF" width="75.034" height="45" rx="3"/><path d="M42.78 22.5c0 8.19-6.686 14.83-14.935 14.83-8.248 0-14.935-6.64-14.935-14.83 0-8.19 6.687-14.83 14.935-14.83 8.25 0 14.936 6.64 14.936 14.83" fill="#339"/><path d="M47.896 7.67c-3.86 0-7.375 1.454-10.026 3.84-.54.484-1.044 1.01-1.508 1.568h3.017c.412.498.792 1.022 1.138 1.57h-5.294c-.317.505-.606 1.03-.86 1.57h7.014c.24.51.45 1.033.633 1.57h-8.28c-.172.513-.317 1.037-.433 1.572h9.147c.22 1.012.337 2.063.337 3.14 0 1.647-.27 3.232-.77 4.712h-8.28c.182.537.393 1.062.633 1.57h7.015c-.256.542-.543 1.066-.86 1.57h-5.294c.345.55.726 1.073 1.138 1.57h3.017c-.465.56-.97 1.085-1.51 1.57 2.65 2.386 6.167 3.84 10.026 3.84 8.25 0 14.935-6.64 14.935-14.832 0-8.19-6.685-14.83-14.934-14.83" fill="#06C"/><path d="M60.84 30.767c0-.264.217-.478.483-.478s.482.213.482.477-.216.48-.482.48-.483-.216-.483-.48zm.483.364c.203 0 .366-.162.366-.363 0-.2-.164-.363-.367-.363-.202 0-.366.162-.366.363 0 .2.164.364.366.364zm-.065-.153h-.1v-.42h.18c.037 0 .075 0 .108.02.034.024.054.064.054.106 0 .048-.028.092-.073.11l.077.184h-.11l-.064-.166h-.072v.167zm0-.238h.054c.02 0 .042 0 .06-.01.017-.01.025-.03.025-.048 0-.016-.01-.034-.024-.043-.017-.01-.044-.008-.063-.008h-.052v.107z" fill="#06C"/><path d="M26.984 19.105c-.134.582-.203.91-.384 1.62-1.123-.473-2.63-.72-3.784-.004-1.09.69-1.46 1.765-1.38 2.956.08.573.514 1.133 1.124 1.376 1.057.388 2.066.246 3.19-.324-.16.717-.28 1.28-.42 1.792-1.347.374-2.626.497-3.973.052-1.203-.416-2.18-1.49-2.26-2.652-.274-1.864.624-3.772 2.452-4.647 1.7-.76 3.638-.628 5.434-.168M46.015 25.73c-.355.354-.958 1.127-2.598 1.127-1.493 0-2.54-1.094-2.01-3.55l.617-2.89h2.28l-.62 2.89c-.21.984-.16 1.732.846 1.732 1.186 0 1.54-.712 1.764-1.732l.62-2.89h2.377l-1.022 4.646c-.117.545-.228 1.122-.292 1.692h-2.14s.135-.775.18-1.025M50.047 22.42c0 .805.53 1.355 1.74 1.765.932.324 1.078.42 1.078.7 0 .4-.416.57-1.315.57-.684 0-1.32-.066-2.055-.243 0 0-.29 1.315-.32 1.465.64.113 1.748.18 2.39.18 2.414 0 3.533-.67 3.533-2.115 0-.865-.47-1.374-1.614-1.764-.965-.315-1.072-.388-1.072-.688 0-.337.38-.515 1.123-.515.446 0 1.07.037 1.652.098l.32-1.47c-.592-.07-1.496-.127-2.017-.127-2.56 0-3.45.98-3.443 2.145M27.853 20.417h2.384l-1.358 6.34h-2.386l1.36-6.34M41.474 20.39c-1.682-.22-2.16.6-2.613 1.008.055-.33.154-.652.134-.98h-2.19c-.3 1.962-.836 3.948-1.254 5.91l-.11.427h2.48c.283-1.287.612-3.23.99-3.82.38-.586 1.01-1.055 1.838-.773l.726-1.772M36.275 20.39c-1.68-.22-2.16.6-2.613 1.008.054-.33.153-.652.134-.98h-2.19c-.302 1.962-.837 3.948-1.255 5.91l-.11.427h2.48c.284-1.287.613-3.23.992-3.82.38-.586 1.01-1.055 1.837-.773l.725-1.772" fill="#006"/><path d="M55.83 25.812c0-.264.215-.48.48-.48.268 0 .484.216.484.48 0 .265-.216.48-.483.48-.265 0-.48-.215-.48-.48zm.48.364c.204 0 .368-.163.368-.364 0-.2-.164-.364-.367-.364-.2 0-.366.163-.366.364 0 .2.165.364.367.364zm-.064-.154h-.1v-.42h.18c.037 0 .076 0 .108.02.035.024.054.065.054.106 0 .048-.027.092-.073.11l.078.184h-.11l-.064-.166h-.074v.166zm0-.24h.055c.02 0 .044.003.06-.006.017-.01.026-.03.026-.048 0-.017-.01-.035-.024-.044-.017-.01-.045-.007-.064-.007h-.052v.106zM27.45 18.64c-.133.584-.203.913-.383 1.62-1.124-.47-2.63-.718-3.785-.002-1.09.69-1.458 1.764-1.38 2.954.082.574.515 1.133 1.125 1.377 1.057.386 2.066.244 3.19-.326-.16.717-.28 1.28-.42 1.793-1.347.373-2.627.496-3.973.052-1.203-.417-2.18-1.493-2.26-2.654-.274-1.864.624-3.772 2.452-4.647 1.7-.76 3.638-.628 5.434-.17M46.482 25.267c-.355.353-.96 1.126-2.598 1.126-1.494 0-2.442-1.093-1.912-3.55l.618-2.89h2.28l-.62 2.89c-.21.985-.16 1.733.847 1.733 1.184 0 1.54-.712 1.763-1.732l.62-2.89h2.278L48.734 24.6c-.116.545-.227 1.122-.29 1.692h-2.14l.178-1.025M50.514 21.958c0 .804.53 1.353 1.74 1.764.932.323 1.078.418 1.078.7 0 .4-.417.57-1.315.57-.684 0-1.32-.067-2.055-.243 0 0-.29 1.313-.32 1.464.64.113 1.747.18 2.39.18 2.414 0 3.533-.67 3.533-2.116 0-.865-.47-1.373-1.614-1.763-.965-.315-1.072-.388-1.072-.69 0-.335.382-.514 1.124-.514.446 0 1.07.04 1.652.1l.32-1.472c-.593-.07-1.496-.126-2.017-.126-2.56 0-3.452.98-3.443 2.146M28.418 19.954h2.286l-1.36 6.338H27.06l1.358-6.338M41.94 19.927c-1.68-.22-2.16.6-2.612 1.007.054-.33.153-.652.133-.98h-2.09c-.3 1.962-.836 3.948-1.254 5.912l-.11.425h2.38c.284-1.286.613-3.23.992-3.817.38-.588 1.01-1.057 1.836-.774l.727-1.773M36.742 19.927c-1.682-.22-2.16.6-2.613 1.007.053-.33.152-.652.132-.98h-2.09c-.302 1.962-.836 3.948-1.255 5.912l-.11.425h2.38c.284-1.286.612-3.23.992-3.817.378-.588 1.008-1.057 1.836-.774l.726-1.773" fill="#FFF"/></g></svg>