<svg width="76" height="45" viewBox="0 0 76 45" xmlns="http://www.w3.org/2000/svg" xmlns:xlink="http://www.w3.org/1999/xlink"><title>Discover-light</title><defs><rect id="a" width="75.034" height="45" rx="3"/><path id="b" d="M18.095 45h53.938c1.657 0 3-1.34 3-2.996v-16.73S54.924 38.9 18.096 45z"/></defs><g fill="none" fill-rule="evenodd"><g><use fill="#FFF" xlink:href="#a"/><use fill="#E7772F" xlink:href="#b"/></g><path d="M13.723 22.367c-.564.48-1.28.69-2.427.69h-.476v-5.744h.476c1.146 0 1.836.197 2.427.702.61.522.976 1.328.976 2.16 0 .84-.368 1.673-.977 2.192zm-2.072-6.525H9.048v8.69h2.588c1.377 0 2.37-.315 3.242-1.006 1.035-.82 1.65-2.056 1.65-3.338 0-2.565-2.004-4.346-4.876-4.346zM17.343 15.842h1.766v8.69h-1.767v-8.69zM23.444 19.172c-1.066-.374-1.377-.623-1.377-1.092 0-.546.556-.96 1.322-.96.53 0 .966.203 1.432.7l.922-1.157c-.762-.64-1.673-.966-2.667-.966-1.608 0-2.833 1.07-2.833 2.484 0 1.203.57 1.812 2.232 2.39.695.23 1.048.39 1.227.496.354.22.53.533.53.896 0 .706-.585 1.226-1.377 1.226-.842 0-1.524-.403-1.932-1.16l-1.142 1.057c.816 1.144 1.795 1.656 3.143 1.656 1.84 0 3.135-1.177 3.135-2.855 0-1.382-.6-2.008-2.616-2.713M26.617 20.188c0 2.556 2.097 4.536 4.796 4.536.76 0 1.414-.144 2.217-.507V22.22c-.71.683-1.333.952-2.14.952-1.783 0-3.046-1.234-3.046-2.996 0-1.664 1.304-2.982 2.97-2.982.84 0 1.48.284 2.216.977v-1.993c-.776-.376-1.413-.53-2.18-.53-2.684 0-4.833 2.017-4.833 4.54M47.983 21.675l-2.422-5.833h-1.93l3.85 8.908h.95l3.926-8.908H50.44l-2.457 5.833M53.16 24.53h5.023V23.06h-3.25v-2.345h3.127V19.24h-3.128v-1.927h3.25v-1.47H53.16v8.688M61.643 19.837h-.514V17.21h.542c1.107 0 1.7.444 1.7 1.29 0 .87-.593 1.337-1.73 1.337zm3.553-1.43c0-1.63-1.166-2.565-3.212-2.565h-2.63v8.69h1.775v-3.495h.23l2.447 3.494h2.18l-2.86-3.66c1.337-.263 2.07-1.135 2.07-2.464z" fill="#1A1918"/><path d="M43.88 20.21c0 2.5-2.12 4.528-4.737 4.528-2.616 0-4.735-2.028-4.735-4.53 0-2.5 2.12-4.53 4.735-4.53 2.617 0 4.736 2.03 4.736 4.53" fill="#E7772F"/></g></svg>