<svg width="76" height="45" viewBox="0 0 76 45" xmlns="http://www.w3.org/2000/svg"><title>JCB-light</title><g transform="translate(.054)" fill="none" fill-rule="evenodd"><rect fill="#FFF" width="75.034" height="45" rx="3"/><path d="M47.637 23.108H50.565c.014 0 .03 0 .048.002l.048.003.048.004.048.005.05.006.047.007.028.006.02.005.048.013.048.014.048.016c.016.006.033.012.05.02l.047.02.047.023.048.027.05.03.047.03c.016.01.033.023.048.035l.05.038.047.042c.016.016.033.03.048.047l.05.05c.015.02.03.04.047.06.017.02.033.043.048.066.017.024.033.05.048.076.018.03.034.06.05.09.016.038.033.076.047.115.02.052.036.107.048.163.022.098.034.2.034.307 0 .108-.012.21-.034.31-.012.055-.03.11-.048.163-.014.04-.03.077-.048.114-.015.03-.03.06-.05.09-.014.027-.03.052-.047.077-.015.024-.03.046-.048.068l-.048.058c-.016.018-.032.035-.05.052-.014.016-.03.03-.047.046l-.048.043-.05.038c-.015.012-.032.023-.048.034l-.048.03-.05.03-.047.025-.048.023-.05.02-.048.02-.048.015-.048.015-.05.012-.018.004-.03.006-.047.007-.048.006-.048.005c-.016 0-.032.003-.048.004-.017 0-.033.002-.048.003-.018 0-.034 0-.05.002H47.638v-2.64zm3.888-2.987c.02.09.03.184.03.282 0 .1-.01.193-.03.28-.012.058-.028.113-.048.165-.014.04-.03.076-.048.11-.016.03-.032.06-.05.088-.015.025-.03.05-.048.073-.015.02-.03.042-.048.062-.016.02-.032.037-.048.055l-.05.048c-.014.015-.03.03-.047.043l-.05.04c-.015.01-.03.022-.048.033l-.048.03-.048.03-.048.024c-.016.008-.032.016-.05.023-.015.007-.03.014-.047.02l-.047.018-.05.016c-.015.005-.03.01-.047.014l-.048.012-.048.01h-.012c-.01.003-.022.005-.037.007l-.047.005-.048.005-.05.003-.047.003h-2.684v-2.435H50.32l.048.003c.017 0 .033.002.05.004.015 0 .032.003.047.004l.048.005.038.006.012.002.048.01.048.01.048.015.05.016c.015.004.03.01.047.017l.05.02.048.023.048.025.048.03.048.03c.017.01.033.023.05.035l.047.038.047.043.05.05.047.054c.017.02.033.04.048.062l.05.073c.016.027.032.056.047.086.017.036.033.073.047.11.02.054.036.108.048.165zm5.99-12.627h.02v25.012c0 .15-.007.297-.02.443-.01.13-.028.256-.048.38-.014.086-.03.17-.05.252-.014.068-.03.135-.047.2-.015.058-.03.115-.048.172-.016.05-.032.102-.05.152-.014.046-.03.09-.047.136l-.048.125c-.016.04-.032.078-.05.116-.014.038-.03.074-.047.11l-.048.102c-.016.032-.032.065-.05.097-.014.03-.03.06-.047.09l-.048.087-.048.083-.05.08-.048.077-.048.074c-.016.024-.032.048-.05.07-.015.024-.03.047-.047.07l-.048.066-.05.064-.048.062-.048.06-.048.057-.05.056c-.015.018-.03.037-.047.055l-.05.054c-.015.017-.03.034-.048.052l-.048.05-.048.05-.05.046-.047.047c-.017.014-.033.03-.05.043-.015.015-.03.03-.048.044l-.048.043-.048.042-.048.04-.05.04-.047.04-.047.036c-.016.013-.032.025-.05.037l-.047.036-.048.036c-.016.012-.032.023-.05.034-.015.01-.03.023-.047.034l-.047.032c-.016.01-.032.02-.048.032l-.05.03-.047.03-.048.03-.05.028c-.015.01-.03.02-.047.028l-.048.027c-.016.01-.032.02-.05.028-.015.01-.03.017-.047.025-.016.01-.032.018-.048.026l-.05.023-.047.024-.048.023-.048.022-.05.022c-.015.008-.03.014-.047.02-.016.008-.032.016-.048.022l-.05.02-.047.02-.048.018-.05.02-.047.017-.048.018c-.016.005-.032.01-.048.017l-.05.015-.047.016-.048.015-.05.015-.048.014-.048.012c-.016.005-.032.01-.05.013l-.047.013-.048.01-.05.013c-.016.005-.032.008-.048.01-.016.005-.032.01-.048.012l-.048.01-.05.01-.047.008-.05.008-.048.008-.048.007-.048.007-.05.007-.047.005-.05.006c-.015 0-.03.003-.047.005-.017 0-.033.003-.05.004-.015 0-.03.003-.047.004-.016.003-.032.004-.048.005l-.05.003-.047.003-.047.002-.05.002-.047.002H45.184V27.31H52.98l.05-.002h.047c.017 0 .033 0 .05-.002.015 0 .03 0 .047-.002l.05-.002.047-.003.048-.004.05-.004.047-.005c.015 0 .03-.003.047-.004l.05-.006.047-.006c.016 0 .032-.003.048-.005l.048-.007.05-.008.047-.008.048-.008.05-.01.047-.01.048-.01.05-.01c.015-.005.03-.01.047-.013l.048-.01.05-.014c.015-.004.03-.01.047-.014l.048-.014.048-.015.05-.016.047-.017c.016-.005.032-.01.048-.017l.05-.018.047-.02c.016-.006.032-.012.048-.02l.05-.02.047-.022.048-.022.048-.023.05-.024c.016-.01.032-.018.048-.026l.048-.027c.017-.01.033-.02.05-.028l.047-.03.048-.03c.018-.01.034-.02.05-.032.016-.01.032-.022.048-.034.016-.01.032-.023.048-.035.017-.01.033-.023.05-.036l.047-.038.048-.04.05-.043.048-.045.048-.047.048-.05.05-.053c.015-.02.03-.038.047-.057l.05-.06.048-.065.048-.07c.016-.027.033-.053.048-.08.017-.026.033-.055.048-.084l.05-.094c.016-.035.032-.072.047-.11.016-.04.033-.084.047-.128.02-.054.035-.11.05-.165.02-.082.035-.166.047-.252.014-.103.02-.21.02-.32 0-.108-.006-.213-.02-.314-.012-.083-.028-.164-.048-.243-.014-.054-.03-.107-.05-.158-.013-.043-.03-.085-.047-.126l-.05-.106c-.015-.03-.03-.062-.048-.092-.015-.028-.03-.055-.048-.082-.015-.025-.032-.05-.048-.074l-.048-.07c-.016-.02-.032-.04-.05-.06-.014-.02-.03-.04-.047-.06-.015-.018-.03-.037-.047-.055l-.05-.05c-.014-.017-.03-.033-.047-.05l-.048-.044c-.016-.015-.032-.03-.05-.044-.014-.013-.03-.027-.047-.04-.015-.014-.03-.027-.047-.04l-.048-.037-.05-.036-.047-.035c-.016-.01-.032-.02-.048-.032l-.05-.03-.047-.03-.048-.03-.05-.026c-.015-.01-.03-.018-.047-.026l-.048-.024-.05-.024c-.015-.008-.03-.016-.047-.023-.016-.01-.032-.016-.048-.023l-.048-.02c-.016-.008-.033-.015-.05-.02-.015-.008-.03-.015-.047-.02l-.048-.02-.05-.017c-.015-.006-.03-.012-.047-.017l-.048-.016-.05-.016c-.015-.004-.03-.01-.047-.014l-.048-.014-.048-.014-.05-.012-.047-.012-.048-.012c-.017-.004-.034-.008-.05-.01-.016-.005-.032-.008-.048-.01-.016-.005-.032-.008-.048-.01l-.05-.01-.047-.01-.048-.007-.05-.008-.048-.007-.048-.006-.048-.007-.05-.005-.047-.005-.05-.005-.048-.004-.044-.003v-.058l.044-.007.05-.008.047-.008.047-.01.05-.01.047-.01.048-.01c.016-.005.032-.01.048-.013.017-.003.033-.008.05-.012.015-.004.03-.01.047-.013l.048-.015.05-.015.047-.016.048-.017.05-.018.047-.02.048-.018.05-.02.047-.022.048-.023.048-.024.05-.025.047-.026.048-.027.05-.03.047-.03.048-.03.05-.035.047-.035.048-.037c.016-.013.033-.026.048-.04.018-.013.034-.027.05-.04l.048-.044.048-.048.05-.05.047-.05.048-.057c.018-.02.034-.04.05-.06l.048-.065c.017-.023.033-.046.048-.07l.05-.077.047-.085.048-.096c.018-.036.034-.073.05-.11l.048-.132c.018-.056.034-.113.048-.17.022-.094.038-.19.048-.287.008-.076.012-.154.012-.232 0-.082-.004-.163-.012-.24-.01-.102-.026-.2-.048-.293-.014-.06-.03-.116-.048-.172-.015-.044-.03-.088-.05-.13-.014-.038-.03-.075-.047-.11-.014-.032-.03-.064-.047-.094l-.048-.083c-.016-.025-.032-.05-.05-.075-.014-.023-.03-.046-.047-.068l-.048-.063c-.016-.018-.032-.038-.05-.057-.014-.018-.03-.036-.047-.054-.016-.018-.032-.035-.048-.05l-.05-.05c-.014-.014-.03-.03-.047-.043l-.048-.043-.05-.04c-.014-.012-.03-.025-.047-.037l-.048-.036c-.016-.01-.032-.02-.048-.033l-.05-.032-.047-.03-.048-.03c-.016-.01-.032-.02-.05-.028-.015-.01-.03-.018-.047-.026l-.048-.025-.05-.024-.047-.022-.048-.022-.048-.02c-.016-.008-.033-.015-.05-.02-.015-.008-.03-.014-.047-.02l-.048-.02-.05-.016c-.016-.006-.032-.01-.048-.017l-.048-.016-.05-.015c-.015-.005-.03-.01-.047-.014l-.048-.014-.05-.012-.048-.013c-.016-.005-.032-.01-.048-.012-.016-.004-.032-.008-.048-.01l-.05-.01c-.015-.005-.03-.008-.047-.01l-.05-.01-.048-.01c-.016 0-.032-.004-.048-.007l-.048-.006-.05-.007-.047-.006-.05-.005-.047-.005-.05-.005-.047-.004-.048-.003-.05-.003-.047-.003h-.018l-.03-.002-.048-.003-.048-.003-.048-.002-.05-.002-.047-.003h-.047l-.048-.003h-.097l-.027-.002H45.184v-5.194c0-.35.036-.69.104-1.02.014-.07.03-.14.048-.21.015-.06.03-.118.048-.176.016-.053.032-.105.05-.156.014-.047.03-.094.047-.14l.048-.13c.016-.038.032-.078.05-.117.014-.037.03-.074.047-.11l.048-.104c.016-.033.032-.065.05-.097.014-.03.03-.062.047-.093l.048-.088.048-.084c.016-.027.032-.054.05-.08.015-.026.03-.052.047-.078l.048-.074c.016-.024.032-.048.05-.07.015-.025.03-.048.047-.07l.048-.067c.016-.02.032-.042.05-.063.015-.02.03-.043.047-.063l.048-.06c.016-.02.032-.04.05-.06l.047-.056.048-.055.048-.053.05-.052.048-.05.048-.05.05-.048.047-.047.048-.045.05-.044.048-.043.048-.04c.016-.015.032-.03.048-.042l.05-.04.047-.04.05-.037.048-.036.048-.036.048-.035.05-.035.047-.033.05-.033.048-.032.048-.03.048-.03.048-.03.05-.03c.015-.01.03-.018.047-.027.015-.01.03-.018.047-.027.016-.01.032-.02.05-.027.015-.01.03-.018.047-.027l.048-.025c.016-.01.032-.017.05-.025L47.998 8l.047-.024.048-.023.05-.022.047-.02.048-.02c.016-.008.033-.015.05-.02.015-.008.03-.014.047-.02l.048-.02.05-.018c.015-.006.03-.013.047-.018l.048-.017c.016-.006.032-.012.05-.017l.047-.016.048-.016.048-.015.05-.015c.015-.004.03-.01.047-.014.016-.005.032-.01.048-.013l.05-.012.047-.013.048-.012c.016-.003.032-.008.05-.01.015-.005.03-.008.047-.012l.048-.01.048-.01.05-.01.047-.008.048-.008.05-.008.048-.008.048-.006.05-.007.047-.006.048-.007c.017 0 .033-.003.05-.005.016 0 .032-.003.048-.004l.048-.004.048-.004.05-.003.047-.003c.017 0 .033 0 .05-.002l.048-.002c.016 0 .032 0 .048-.002H57.52z" fill="#54B230"/><path d="M17.5 24.85V12.496c0-.35.035-.69.103-1.017.014-.072.03-.142.048-.21.016-.06.032-.12.05-.178.014-.052.03-.104.047-.155.016-.048.032-.094.05-.14.014-.044.03-.087.047-.13.015-.04.03-.078.048-.118l.048-.11.048-.104c.016-.033.032-.065.05-.098.014-.03.03-.062.047-.092l.048-.088.048-.085.05-.08c.015-.027.03-.052.048-.078l.048-.074.048-.07.048-.07c.016-.023.032-.044.05-.066l.047-.065c.015-.022.03-.043.047-.064l.048-.06.048-.058c.016-.02.032-.038.05-.057.015-.018.03-.036.047-.054l.048-.054.048-.05c.016-.018.032-.035.05-.052l.047-.05.048-.047.05-.047.047-.045c.016-.014.032-.03.05-.044l.047-.042.048-.043c.016-.012.032-.026.048-.04l.05-.04.047-.038.048-.038.048-.037.048-.036.05-.034.048-.035c.016-.01.032-.02.048-.032l.048-.033c.016-.01.032-.02.048-.032l.05-.03.047-.03.047-.03.048-.03c.016-.01.032-.02.05-.028.015-.01.03-.018.047-.027l.048-.027.048-.024c.016-.01.032-.017.048-.026l.05-.024.047-.024.048-.024.05-.022.048-.023.048-.02.048-.022c.016-.006.032-.012.048-.02l.048-.02.05-.018.047-.018.048-.018.048-.017c.016-.007.032-.013.05-.018l.047-.016.048-.016.048-.015.048-.015c.016-.005.032-.01.05-.014.015-.005.03-.01.047-.013l.05-.013c.015-.005.03-.01.047-.013l.048-.012.05-.012.047-.01.048-.01c.016-.004.032-.008.048-.01l.05-.01.047-.01.048-.008.048-.008.05-.008.048-.007.048-.007.048-.006.048-.006c.016 0 .032-.003.05-.005.015-.003.03-.004.047-.005l.047-.005c.016 0 .032-.002.048-.004l.048-.003c.017 0 .033-.002.05-.003.015 0 .03 0 .047-.002l.048-.002c.016 0 .032 0 .048-.002H29.85v25.01c0 .218-.013.433-.04.643-.013.1-.03.2-.048.3-.015.076-.03.15-.048.225-.015.063-.03.125-.05.186-.014.054-.03.108-.047.16-.016.05-.032.098-.05.145-.015.044-.03.088-.047.132-.016.04-.032.08-.05.12-.014.038-.03.076-.047.113-.015.036-.032.07-.048.106l-.048.1-.048.093c-.016.03-.032.06-.05.09-.015.03-.03.057-.047.086l-.048.08-.048.08-.05.074c-.016.025-.03.05-.048.073l-.048.07-.048.067-.048.065c-.016.02-.032.042-.05.063-.015.02-.03.04-.047.06-.015.02-.03.04-.047.06l-.048.057c-.016.02-.032.037-.05.056-.015.018-.03.036-.047.054l-.048.052c-.016.017-.032.035-.048.05l-.048.05-.05.05-.047.046-.048.046-.05.045c-.015.015-.03.03-.048.044-.016.014-.03.028-.048.042-.016.014-.032.028-.048.04-.016.015-.032.03-.048.042l-.048.04c-.016.012-.032.025-.05.037-.015.013-.03.025-.047.037l-.048.037c-.016.01-.032.022-.048.034l-.048.035c-.017.01-.034.02-.05.032-.016.01-.032.023-.048.034l-.048.03-.048.033-.05.03-.047.03-.05.028c-.015.01-.03.02-.047.028-.016.01-.032.02-.048.028-.016.01-.033.018-.05.027-.015.01-.03.018-.047.027l-.048.025c-.016.01-.032.017-.048.025l-.05.024c-.015.01-.03.017-.047.025l-.048.023-.048.022-.05.022-.048.02-.048.02c-.016.008-.032.014-.048.02l-.048.02c-.016.007-.032.012-.048.02-.017.005-.033.01-.05.017l-.047.016-.048.017-.048.017-.05.015-.047.016-.048.015-.048.015-.048.014-.05.013-.047.013-.05.01c-.015.005-.03.01-.047.013l-.05.01-.047.012-.048.01-.048.01-.048.01-.05.007-.047.008-.048.008-.048.007-.05.007-.048.006-.048.006-.048.005c-.016 0-.032.002-.048.004l-.05.004-.047.005-.047.003-.048.003h-.048c-.016.002-.033.002-.05.003-.015 0-.03 0-.047.002h-.096c-.015.002-.03.002-.045.002H17.488V26.965l.103.027.048.012.05.012.047.01.05.013.047.01.048.01.048.012.048.01.05.01.047.01.048.012.048.01.05.01.048.01.048.01.048.01.048.01.05.008.047.01.047.01.048.008.048.008.05.01.047.008.048.01.048.007.05.008.047.01.048.008.05.008.047.008.05.007.047.01.048.007.048.007.05.008.047.007.048.006.048.007.048.007.05.007.048.007.048.006.048.007.048.006.05.006.047.006.047.006.048.006.05.006.047.006.048.005.048.006.048.006.05.006.047.005.048.005.05.005.048.005.048.005.048.005.048.005.048.004.05.006.047.004.048.004.048.004.05.004.047.004.048.004.048.004.048.003.05.004.047.004.05.004.047.003.048.004.05.003.047.003.048.003.048.002.05.003.047.002.048.003.048.002.05.002.048.002h.048l.048.003h.048l.05.003h.047l.047.003h.096l.05.002h.047l.048.002h.096l.05.002H22.858l.05-.002h.047l.048-.002h.048l.05-.002h.048l.048-.003h.048l.048-.003.05-.002.047-.002.047-.002.048-.002.05-.003.047-.003.048-.003.048-.002.048-.004.05-.002.047-.004.048-.003.05-.003.047-.004.05-.004.047-.005.048-.005.048-.005.05-.005.047-.005.048-.005.048-.006.048-.005.05-.007.048-.006.048-.007.048-.006.05-.007.047-.007.05-.007.047-.008.048-.007.05-.008.047-.008.048-.008.048-.01.05-.008.047-.01.048-.01c.016-.002.032-.006.048-.01l.05-.01.048-.01c.016-.002.032-.006.048-.01l.048-.01c.016-.004.032-.008.048-.01.017-.005.032-.01.05-.013l.047-.012.047-.01.048-.014.048-.012c.016-.005.033-.01.05-.013l.047-.013.048-.014.048-.014.048-.016.05-.015.047-.016.05-.016.047-.016c.016-.006.033-.01.05-.017l.047-.017.048-.018.048-.018.048-.018.05-.02.047-.02.048-.02c.016-.006.032-.012.048-.02.018-.006.033-.014.05-.02l.048-.023.048-.02c.016-.01.032-.017.048-.024l.048-.024.05-.024c.015-.01.03-.017.047-.025.015-.01.03-.018.047-.026l.048-.027.048-.027c.017-.01.033-.02.05-.028l.047-.03.048-.03.048-.03.05-.032.047-.033c.016-.01.032-.022.048-.034.017-.01.033-.023.05-.035.016-.01.03-.023.047-.035l.05-.037.047-.04.048-.04.048-.04.05-.045c.015-.014.03-.03.047-.044l.048-.048.048-.05.048-.05c.018-.017.034-.035.05-.053l.048-.057.048-.058.048-.06.048-.066.05-.07.047-.072.047-.077c.017-.026.033-.053.048-.08l.05-.09c.015-.032.03-.064.047-.096l.048-.105.048-.117c.017-.043.033-.086.048-.13.018-.05.034-.1.05-.15l.047-.178c.018-.075.034-.15.048-.227.022-.114.038-.23.05-.346.016-.163.023-.33.023-.498V17.69H24.54l-.036 5.804c0 .09-.004.18-.012.268-.01.112-.026.22-.048.327-.014.064-.03.128-.05.19-.013.052-.03.1-.047.15-.015.04-.03.082-.048.122-.015.035-.03.07-.048.105l-.048.094-.05.084c-.015.026-.03.052-.048.077-.015.024-.032.047-.048.07l-.048.065c-.016.02-.032.04-.05.06-.014.018-.03.037-.047.055l-.05.052-.047.05-.048.045c-.016.015-.032.03-.05.043-.014.014-.03.027-.047.04l-.048.04c-.016.01-.032.023-.048.035l-.048.035-.05.032-.047.03-.048.03-.05.027c-.015.008-.03.017-.048.025-.015.01-.032.017-.048.025l-.048.023-.048.023-.048.02c-.016.007-.032.014-.05.02l-.047.02c-.016.005-.032.01-.048.017l-.048.016-.05.015-.047.015c-.016.004-.032.01-.048.013-.016.005-.032.01-.048.013l-.048.012c-.016.004-.032.008-.05.01-.015.005-.03.008-.047.012l-.05.01-.047.008-.05.008-.047.008-.048.006-.048.006-.048.006c-.016 0-.032.003-.05.004l-.047.005-.048.004-.048.003c-.017 0-.033 0-.05.002h-.048l-.048.002H21.7l-.047-.002h-.048l-.048-.003-.05-.002-.047-.002-.048-.002-.048-.002-.05-.003-.047-.004-.048-.003-.05-.004-.047-.004-.05-.006-.047-.004-.048-.006-.048-.005-.048-.007-.05-.006-.047-.006-.048-.006-.048-.007-.05-.007-.048-.008-.048-.008-.048-.008-.048-.008-.05-.01-.047-.008-.047-.01-.048-.01-.05-.008-.047-.01-.048-.01-.048-.01-.048-.012-.05-.01-.047-.013-.048-.01-.05-.013-.048-.012-.048-.013-.048-.014-.048-.013-.048-.013-.05-.013-.047-.014-.048-.014-.048-.015-.048-.015-.05-.015-.048-.015-.048-.015-.048-.015-.05-.016-.047-.016-.05-.016-.047-.017-.048-.017-.05-.017-.047-.016-.048-.017-.048-.018-.05-.02-.047-.017-.048-.02-.048-.017-.05-.02-.048-.018-.048-.02-.048-.02-.048-.02-.05-.02-.047-.02-.047-.02-.048-.02-.048-.02-.05-.022-.047-.02-.048-.023-.048-.022-.048-.02-.05-.023-.047-.022-.05-.023-.047-.022-.104-.05z" fill="#006CB9"/><path d="M31.448 18.96c-.035.027-.07.056-.103.085v-6.55c0-.348.035-.687.103-1.016.015-.07.03-.14.048-.21.015-.06.032-.12.05-.178.014-.052.03-.104.047-.155.015-.047.03-.094.048-.14l.05-.13c.015-.038.03-.078.048-.117.015-.037.03-.074.048-.11.015-.035.032-.07.048-.104l.048-.097.048-.094c.016-.03.032-.06.05-.088.014-.028.03-.056.047-.084l.048-.08.048-.08.048-.073.05-.07.048-.07.048-.066.048-.064c.016-.02.032-.042.05-.063.014-.02.03-.04.047-.06l.05-.06.047-.056.048-.053.05-.054c.015-.018.03-.035.047-.052l.048-.05.048-.05.05-.047.047-.047.048-.045.048-.043c.017-.015.033-.03.05-.043.015-.014.03-.028.048-.042l.048-.04c.016-.014.032-.028.048-.04l.048-.04.05-.038c.015-.012.03-.025.047-.037l.047-.036c.016-.01.032-.022.048-.034l.048-.035.05-.032.047-.033.048-.03.048-.033.05-.03.047-.03c.016-.01.032-.02.048-.028l.05-.03.047-.026c.017-.01.032-.018.05-.026.015-.01.03-.018.047-.026.016-.01.032-.017.048-.026l.048-.024.05-.024.047-.024.048-.022.048-.022.048-.022.05-.02.048-.02.048-.02.048-.02.05-.018.047-.018c.017-.006.033-.01.05-.017.015-.007.03-.013.047-.018l.048-.016.05-.016.047-.015.048-.015.048-.014c.016-.005.032-.01.048-.013l.05-.013c.015-.005.03-.01.047-.013l.048-.012.05-.012.048-.01.048-.01c.016-.004.032-.008.048-.01l.048-.01.048-.01.05-.008.047-.008.048-.008.048-.007.05-.007.047-.006.048-.006c.016 0 .032-.003.048-.005.016-.003.032-.004.048-.005l.05-.005.047-.003.05-.004.047-.003c.016 0 .033 0 .05-.002l.047-.002h.048c.016-.002.032-.002.048-.002H43.696v25.01c0 .218-.013.432-.04.643-.013.1-.03.2-.048.3-.015.076-.03.15-.048.225-.015.062-.03.124-.05.186-.014.054-.03.108-.047.16-.015.05-.03.097-.048.145l-.048.13-.05.122c-.015.038-.03.076-.048.113-.015.035-.03.07-.048.105l-.048.1-.048.094c-.016.03-.032.06-.05.09-.014.028-.03.057-.047.085-.015.028-.03.055-.047.082l-.048.078-.048.075c-.016.024-.032.05-.05.073l-.047.07-.048.067-.048.065c-.016.02-.032.042-.05.063-.014.02-.03.04-.047.06l-.048.06-.05.057c-.015.02-.03.037-.047.055-.016.02-.032.037-.05.055-.015.017-.03.035-.047.052l-.048.05-.048.05-.05.05-.047.046-.048.046-.048.044-.048.044-.05.042c-.016.014-.032.028-.048.04l-.048.042-.048.04c-.016.01-.032.024-.05.037-.014.013-.03.025-.047.037l-.05.037-.047.034-.048.035-.05.032c-.015.01-.03.023-.047.033l-.048.032-.048.032-.05.03-.047.03-.048.028c-.016.01-.032.02-.048.028-.017.01-.033.02-.05.028l-.048.027-.048.027-.048.025c-.016.01-.032.017-.048.025l-.05.024c-.015.01-.03.017-.047.025l-.047.022-.048.023-.048.02-.05.022-.047.02-.048.02-.048.02-.05.018-.047.02-.048.016-.05.017-.047.017-.05.015-.047.016-.048.015-.048.015-.05.013c-.015.005-.03.01-.047.013l-.048.014-.048.01c-.016.005-.032.01-.048.013l-.05.01-.048.012-.048.01-.048.01-.048.01-.05.007-.047.008-.047.008-.048.007-.05.007-.047.006-.048.006-.048.005c-.016 0-.032.002-.048.004l-.05.004-.047.005-.048.003-.05.003h-.048l-.048.003c-.016 0-.032 0-.048.002h-.096c-.016.002-.03.002-.045.002H31.34v-11.55c.033.03.068.058.103.086l.048.04c.016.01.032.024.05.036.015.01.03.024.047.036l.048.035.05.036c.015.01.03.023.048.034l.048.033c.016.01.032.02.048.032l.048.03c.016.012.032.022.048.032l.05.03.047.03c.016.01.032.02.048.028.016.01.032.02.048.028l.048.027.05.027.048.026c.016.01.032.017.048.026l.048.024.05.024.047.024.05.023c.015.008.03.016.047.023l.048.023.05.023.047.02.048.022.048.02.05.02.047.02.048.02.048.02.05.017.048.018.048.018.048.017.048.017.05.017.047.015.047.016.048.017.048.015.05.015.047.015.048.014.048.014.05.014.047.013.048.013.05.013.047.013.05.012.047.012.048.012.048.012.05.01.047.012.048.01.048.01.048.01.05.01.048.01.048.01.048.01.05.01.047.008.05.01.047.007.048.01.05.008.047.007.048.008.048.008.048.008.05.007.047.007.048.007.05.005.048.006.048.007.048.006.048.006.048.005.05.005.047.006.048.005.048.006.05.004.047.005.048.004.048.004.048.004.05.004.047.003.05.004.047.003.05.003.047.003.048.002.048.003.048.003.05.003.047.003.048.003.048.002.05.002.048.002.048.002h.048l.048.003.05.002h.094l.048.002h.05l.047.002h.096l.048.002H37.62l.05-.002h.047l.048-.002h.048l.05-.002h.047l.048-.002h.048l.048-.003.05-.002h.047l.05-.003.047-.002.05-.002.047-.002h.023l.025-.002.048-.002.048-.003.05-.003.047-.003.048-.002.048-.003.05-.003.048-.004.048-.003.048-.004.048-.003.05-.004.047-.004.047-.006.048-.004.05-.005.047-.005.048-.005.048-.005.048-.005.05-.005.047-.006.048-.005.05-.007.048-.006.048-.006.048-.005.048-.006.048-.007.05-.006.047-.007.048-.006.048-.007.048-.007.05-.007.048-.007.048-.007.048-.008.05-.008.047-.007.05-.008.047-.008.048-.008.05-.008.047-.008.048-.008.048-.008.05-.008.047-.01.048-.007.048-.01.05-.008.048-.01.048-.008.048-.01.048-.008.05-.01.047-.008.047-.01.048-.01.048-.01.05-.008.047-.01.048-.01.048-.01.05-.01.047-.01.048-.01.05-.01.047-.01.05-.01.047-.01.048-.012.048-.01.05-.012.047-.01.048-.012.048-.01.048-.013.05-.012.048-.012V24.85l-.048.024-.05.024-.047.023-.048.024-.048.024-.048.023-.05.023-.048.023-.048.022-.048.022-.05.022-.047.02-.05.022-.047.02-.048.022-.05.02-.047.02-.048.02-.048.02-.05.02-.047.02-.048.018-.048.02-.05.017-.048.02-.048.017-.048.018-.048.017-.05.017-.047.016-.047.016-.048.017-.048.015-.05.015-.047.016-.048.015-.048.016-.05.014-.047.014-.048.014-.05.014-.047.014-.05.013-.047.012-.048.012-.048.013-.05.012-.047.01-.048.012-.048.012-.048.01-.05.01-.048.012-.048.01-.048.01-.048.01-.05.01-.047.008-.047.01-.048.007-.05.01-.047.008-.048.008-.048.007-.048.007-.05.007-.047.007-.048.007-.05.007-.048.006-.048.006-.048.004-.048.005-.048.004-.05.005-.047.004-.048.004-.048.004-.03.002h-.02l-.047.005-.048.002-.048.002-.048.003-.05.002H38.2l-.05.002h-.047l-.05.002h-.191l-.05-.002h-.047l-.048-.003-.048-.003-.05-.002-.048-.003-.048-.004-.048-.003-.048-.004c-.017 0-.033-.003-.05-.004l-.047-.005-.047-.005-.048-.006-.05-.007-.047-.007-.048-.007-.048-.01-.048-.007-.05-.01-.047-.008-.048-.01-.05-.01-.048-.01-.048-.013-.048-.012-.048-.012-.048-.014c-.017-.004-.033-.01-.05-.013-.015-.004-.03-.01-.047-.014l-.048-.015-.048-.015-.05-.016-.047-.02c-.016-.004-.032-.01-.048-.016l-.048-.02-.048-.018-.05-.02-.047-.022-.05-.022-.047-.023c-.016-.01-.033-.017-.05-.025l-.047-.024-.048-.025-.048-.027-.048-.028-.05-.03-.047-.03-.048-.03-.048-.033c-.017-.01-.034-.023-.05-.034l-.048-.035-.048-.038-.048-.038-.048-.04-.05-.043-.047-.045-.047-.046-.048-.05c-.017-.015-.033-.032-.05-.05l-.047-.053-.048-.056-.048-.058c-.016-.02-.033-.04-.048-.062l-.05-.066c-.015-.024-.03-.047-.047-.07l-.048-.076c-.018-.026-.034-.053-.05-.08l-.047-.088-.05-.094-.047-.103c-.017-.038-.033-.075-.048-.114-.017-.043-.033-.086-.048-.13l-.05-.148-.047-.176c-.018-.075-.034-.15-.048-.228-.02-.115-.037-.233-.048-.354-.013-.14-.02-.285-.02-.433 0-.148.007-.292.02-.432.01-.12.027-.24.048-.354.014-.078.03-.154.048-.23.015-.06.03-.117.048-.175l.05-.15c.015-.043.03-.086.048-.128.015-.04.03-.077.048-.114l.048-.103c.016-.032.032-.064.05-.095.014-.03.03-.058.047-.087.016-.027.032-.054.05-.08l.047-.076.048-.07c.016-.022.032-.044.05-.066l.047-.062.048-.06.048-.055.048-.053c.016-.017.032-.034.05-.05l.047-.05.048-.045.05-.044c.015-.013.03-.028.048-.04.015-.015.032-.028.048-.04l.048-.04.048-.037.048-.036.05-.034.047-.033.048-.03.048-.03.05-.03c.015-.01.03-.02.047-.028l.048-.027c.016-.01.032-.017.048-.025.016-.01.032-.017.048-.025l.05-.024.047-.022.05-.022c.015-.007.03-.014.047-.02l.05-.022.047-.02c.016-.005.032-.01.048-.018.016-.006.032-.01.048-.017l.048-.02.05-.015.047-.016.048-.016.048-.015.05-.014.048-.014.048-.012c.016-.004.032-.01.048-.012l.048-.012.05-.01c.015-.004.03-.008.047-.01.015-.004.03-.008.047-.01l.048-.01.05-.01.047-.007.048-.01.048-.006.048-.007.05-.007.047-.005.048-.006.05-.006c.015 0 .03-.003.048-.005l.048-.005.048-.003.048-.004.048-.003.05-.002.047-.002h.048l.048-.002.05-.002h.241l.047.002h.05l.047.003.05.003.047.003.048.002.048.003.048.005h.02l.03.003.047.004.048.004.048.005.05.005.048.005.048.005.048.006.048.006.05.006.047.006.047.007.048.007.05.006.047.008.048.007.048.008.048.01.05.007.047.008.048.01.05.008.048.01.048.01.048.01.048.01.048.01.05.01.047.01.048.012.048.012.048.012.05.01.048.013.048.013.048.012.05.014.047.013.05.014.047.013.048.014.05.015.047.014.048.015.048.017.05.016.047.015.048.017.048.016.05.018.048.017.048.017.048.018.048.018.05.018.047.02.047.017.048.02.048.02.05.018.047.02.048.02.048.022.05.02.047.02.048.022.05.022.047.02.05.023.047.022.048.022.048.023.05.022.047.023.048.023.048.024.048.023.05.024.048.025v-2.118l-.048-.012-.05-.01-.047-.013-.048-.012-.048-.01-.048-.012-.05-.01-.048-.012-.048-.01-.048-.01-.05-.012-.047-.01-.05-.01-.047-.01-.048-.01-.05-.01-.047-.01-.048-.01-.048-.01-.05-.01-.047-.01-.048-.008-.048-.01-.05-.01-.048-.008-.048-.01-.048-.008-.048-.01-.05-.007-.047-.008-.047-.01-.048-.007-.048-.008-.05-.01-.047-.007-.048-.008-.048-.008-.05-.008-.047-.007-.048-.01-.05-.007-.047-.007-.05-.007-.047-.01-.048-.006-.048-.007-.05-.007-.047-.006-.048-.007-.048-.007-.048-.006-.05-.007-.048-.006-.048-.005-.048-.006-.048-.007-.05-.006-.047-.005-.047-.006-.048-.005-.05-.005-.047-.005-.048-.005-.048-.005-.048-.005-.05-.004-.047-.004-.048-.004-.05-.004-.048-.004-.048-.004-.048-.004-.048-.004-.048-.003-.05-.004-.047-.004-.048-.003-.048-.003-.05-.003-.047-.003h-.048l-.025-.002h-.023l-.048-.003-.05-.002-.047-.002h-.05l-.047-.002-.05-.002-.047-.002h-.048l-.048-.002h-.048l-.05-.002h-.047l-.048-.002h-.048l-.05-.002h-.577l-.048.002h-.05l-.047.002h-.048l-.05.002-.048.002-.048.002h-.048l-.048.003h-.048l-.05.003-.047.002-.048.003-.048.002-.05.003-.047.003-.048.003-.048.002-.048.003-.05.003-.047.004-.05.004-.047.003-.05.003-.047.004-.048.005-.048.004-.048.005-.05.006-.047.005-.048.006-.048.005-.05.006-.048.006-.048.006-.048.006-.048.006-.05.006-.047.007-.047.006-.048.006-.05.007-.047.008-.048.008-.048.008-.048.008-.05.008-.047.008-.048.008-.05.01-.047.008-.05.01-.047.01-.048.008-.048.01-.05.01-.047.01-.048.01-.048.012-.048.01-.05.012-.048.01-.048.013-.048.013-.05.013-.047.012-.05.013-.047.014-.048.014-.05.013-.047.016-.048.014-.048.015-.05.014-.047.015-.048.015-.048.016-.05.016-.048.017-.048.016-.048.018c-.016.006-.032.01-.048.017l-.05.02-.047.018-.047.02-.048.018-.048.02-.05.02-.047.02-.048.022-.048.02-.05.023-.047.023-.048.023-.05.024-.047.024-.05.024-.047.025-.048.026-.048.025-.05.027c-.015.01-.03.018-.047.027l-.048.027c-.016.01-.032.02-.048.028l-.048.03-.05.03-.048.03-.048.032c-.016.01-.032.02-.048.032l-.048.032c-.017.01-.033.023-.05.034l-.047.035c-.015.013-.03.024-.047.036l-.048.037-.05.037-.047.04z" fill="#E10238"/></g></svg>