<svg width="76" height="45" viewBox="0 0 76 45" xmlns="http://www.w3.org/2000/svg"><title>UnionPay-light</title><g fill="none" fill-rule="evenodd"><rect fill="#FFF" width="75.034" height="45" rx="3"/><path d="M60.486 6.083L47.943 6.08h-.031c-1.724.055-3.87 1.447-4.26 3.164L37.72 35.69c-.39 1.733.672 3.143 2.383 3.17H53.28c1.684-.085 3.32-1.46 3.705-3.16l5.932-26.445c.397-1.75-.692-3.172-2.43-3.172" fill="#01798A"/><path d="M37.72 35.69l5.93-26.446c.392-1.717 2.538-3.11 4.262-3.163l-4.988-.002-8.985-.002c-1.728.036-3.902 1.438-4.293 3.168L23.713 35.69c-.392 1.733.673 3.143 2.383 3.17h14.007c-1.71-.027-2.774-1.437-2.383-3.17" fill="#024381"/><path d="M23.713 35.69l5.934-26.446c.39-1.73 2.565-3.132 4.292-3.168l-11.51-.003c-1.74 0-3.966 1.42-4.363 3.17L12.133 35.69c-.036.16-.056.32-.068.474v.49c.116 1.264 1.074 2.184 2.45 2.205h11.58c-1.71-.027-2.774-1.437-2.382-3.17" fill="#DD0228"/><path d="M34.182 25.346h.218c.2 0 .335-.067.398-.2l.566-.855h1.516l-.316.563h1.817l-.23.86H35.99c-.25.377-.556.555-.924.534h-1.127l.245-.9zm-.25 1.233h3.983l-.254.934h-1.6l-.244.902h1.558l-.254.934h-1.558l-.362 1.333c-.09.222.028.323.35.3h1.27l-.234.868h-2.438c-.462 0-.62-.265-.476-.8l.463-1.7h-.996l.252-.934h.996l.244-.902h-.952l.253-.935zm6.357-2.295l-.064.547s.75-.568 1.433-.568h2.52l-.964 3.516c-.08.402-.423.602-1.028.602H39.33l-.67 2.468c-.037.133.017.2.162.2h.562l-.207.767h-1.43c-.548 0-.776-.166-.685-.5l1.89-7.032h1.337zm2.133.994h-2.25l-.27.947s.376-.272 1.002-.282c.625-.01 1.337 0 1.337 0l.18-.666zm-.815 2.2c.167.022.26-.044.27-.2l.138-.5h-2.253l-.19.7h2.035zm-1.52 1.136h1.3l-.025.566h.346c.174 0 .26-.056.26-.168l.103-.366h1.08l-.145.534c-.122.445-.445.678-.97.7h-.692l-.004.968c-.012.156.127.235.413.235h.65l-.21.766h-1.56c-.436.022-.65-.188-.646-.633l.098-2.6zM24.35 19.6c-.177.87-.585 1.538-1.22 2.012-.626.467-1.436.7-2.427.7-.933 0-1.617-.238-2.053-.717-.303-.34-.454-.773-.454-1.296 0-.217.026-.45.077-.7l1.056-5.13h1.594l-1.04 5.072c-.033.14-.046.27-.044.39-.002.26.062.472.192.638.19.247.495.37.922.37.49 0 .895-.12 1.21-.365.313-.242.518-.586.61-1.033l1.045-5.073h1.586L24.35 19.6M31.048 17.582h1.25l-.98 4.58h-1.246l.976-4.58m.393-1.67h1.262l-.236 1.113h-1.26l.235-1.112M33.403 21.813c-.327-.315-.492-.74-.493-1.278 0-.092.005-.197.017-.312.012-.116.028-.23.05-.334.147-.745.463-1.335.95-1.77.484-.438 1.07-.658 1.755-.658.56 0 1.006.158 1.332.475.326.318.49.747.49 1.292 0 .093-.008.2-.02.317-.014.118-.032.23-.052.342-.145.732-.46 1.316-.945 1.744-.486.43-1.07.645-1.75.645-.564 0-1.008-.156-1.334-.467m2.38-.907c.22-.24.38-.605.475-1.09.014-.077.027-.156.035-.235.008-.077.01-.15.01-.215 0-.283-.07-.502-.214-.657-.143-.157-.346-.234-.607-.234-.346 0-.628.123-.85.368-.222.245-.38.616-.48 1.11-.013.076-.024.152-.034.226-.01.076-.01.147-.01.21 0 .282.07.498.215.652.142.153.344.23.61.23.347 0 .628-.122.85-.364" fill="#FFF"/><path fill="#E02F41" d="M47.94 6.085l-5.016-.007 4.988.016c.01 0 .018-.01.028-.01"/><path fill="#2E4F7D" d="M42.924 6.096l-8.916-.023c-.022 0-.045.008-.07.015l8.986.008"/><path d="M45.61 25.385l.3-1.068h1.523l-.066.392s.778-.393 1.34-.393h1.882l-.3 1.068h-.297l-1.42 5.038h.296l-.283 1h-.296l-.122.434h-1.475l.123-.434h-2.91l.284-1h.29l1.423-5.038h-.294zm1.642 0l-.388 1.364s.663-.258 1.235-.33c.125-.477.29-1.035.29-1.035h-1.138zm-.567 2.003l-.39 1.428s.736-.365 1.24-.396c.146-.552.292-1.032.292-1.032h-1.142zm.285 3.035l.29-1.036h-1.136l-.293 1.036h1.14zm3.683-6.172h1.432l.06.533c-.01.136.07.2.24.2h.254l-.257.902H51.33c-.4.02-.608-.134-.627-.468l-.05-1.166zm-.42 1.936h4.638l-.27.968h-1.477l-.254.9h1.475l-.274.967H52.43l-.372.567h.804l.186 1.134c.022.114.12.17.29.17h.25l-.26.933h-.886c-.458.023-.694-.132-.714-.466l-.213-1.036-.732 1.103c-.172.312-.438.457-.796.434h-1.35l.262-.934h.422c.173 0 .317-.077.446-.234l1.146-1.67h-1.477l.274-.966h1.6l.256-.9H49.96l.274-.968zM25.82 17.58h1.125l-.13.662.163-.19c.365-.393.81-.588 1.332-.588.474 0 .816.14 1.03.418.212.28.27.665.17 1.16l-.62 3.12h-1.16l.562-2.828c.058-.292.042-.51-.047-.65-.088-.14-.257-.21-.5-.21-.297 0-.548.094-.752.28-.205.186-.34.446-.407.777l-.516 2.633h-1.16l.91-4.583M38.738 17.58h1.128l-.128.662.16-.19c.365-.393.81-.588 1.332-.588.474 0 .817.14 1.03.418.21.28.27.665.168 1.16l-.618 3.12h-1.16l.56-2.828c.06-.292.043-.51-.045-.65-.092-.14-.257-.21-.498-.21-.298 0-.548.094-.755.28-.205.186-.34.446-.405.777l-.52 2.633H37.83l.908-4.583M44.31 14.74h3.275c.63 0 1.116.144 1.45.426.334.286.5.696.5 1.23v.016c0 .1-.006.216-.016.34-.017.123-.038.247-.065.376-.144.707-.48 1.275-.996 1.706-.52.43-1.135.645-1.842.645h-1.756l-.543 2.683H42.8l1.51-7.423m.82 3.448h1.456c.38 0 .68-.088.9-.264.217-.178.362-.45.44-.817.014-.068.022-.13.032-.185.005-.053.01-.107.01-.158 0-.263-.092-.454-.278-.573-.185-.12-.477-.178-.88-.178h-1.237l-.443 2.176M56.338 23.05c-.48 1.028-.938 1.628-1.207 1.907-.268.276-.8.92-2.086.87l.11-.786c1.082-.334 1.666-1.846 2-2.516l-.398-4.93.836-.012h.7l.077 3.093 1.313-3.093h1.33L56.34 23.05M52.617 17.954l-.53.367c-.552-.435-1.056-.704-2.03-.25-1.326.62-2.434 5.372 1.218 3.807l.208.25 1.436.036.943-4.318-1.246.11m-.817 2.36c-.23.686-.746 1.14-1.15 1.01-.403-.126-.548-.787-.314-1.475.23-.687.75-1.14 1.15-1.01.403.126.55.788.314 1.475" fill="#FFF"/></g></svg>