<svg width="579" height="209" viewBox="0 0 579 209" xmlns="http://www.w3.org/2000/svg"><title>waves</title><g stroke="#fff" stroke-width=".5" fill="none"><path d="M.365.63h578.54M.365 2.582l36.16.128 36.153-.128 36.157.128 36.156-.128 36.157.128 36.157-.128 36.16.128 36.16-.128 36.157.128 36.16-.128 36.16.128 36.157-.128 36.16.128 36.16-.128 36.163.128 36.164-.128M.365 4.533l36.16.255 36.153-.255 36.157.255 36.156-.255 36.157.255 36.157-.255 36.16.255 36.16-.255 36.157.255 36.16-.255 36.16.255 36.157-.255 36.16.255 36.16-.255 36.163.255 36.164-.255M.365 6.485l36.16.382 36.153-.382 36.157.382 36.156-.382 36.157.382 36.157-.382 36.16.382 36.16-.382 36.157.382 36.16-.382 36.16.382 36.157-.382 36.16.382 36.16-.382 36.163.382 36.164-.382M.365 8.437l36.16.51 36.153-.51 36.157.51 36.156-.51 36.157.51 36.157-.51 36.16.51 36.16-.51 36.157.51 36.16-.51 36.16.51 36.157-.51 36.16.51 36.16-.51 36.163.51 36.164-.51M.365 10.388l36.16.638 36.153-.638 36.157.638 36.156-.638 36.157.638 36.157-.638 36.16.638 36.16-.638 36.157.638 36.16-.638 36.16.638 36.157-.638 36.16.638 36.16-.638 36.163.638 36.164-.638M.365 12.34l36.16.765 36.153-.765 36.157.765 36.156-.765 36.157.765 36.157-.765 36.16.765 36.16-.765 36.157.765 36.16-.765 36.16.765 36.157-.765 36.16.765 36.16-.765 36.163.765 36.164-.765M.365 14.292l36.16.893 36.153-.893 36.157.893 36.156-.893 36.157.893 36.157-.893 36.16.893 36.16-.893 36.157.893 36.16-.893 36.16.893 36.157-.893 36.16.893 36.16-.893 36.163.893 36.164-.893M.365 16.243l36.16 1.02 36.153-1.02 36.157 1.02 36.156-1.02 36.157 1.02 36.157-1.02 36.16 1.02 36.16-1.02 36.157 1.02 36.16-1.02 36.16 1.02 36.157-1.02 36.16 1.02 36.16-1.02 36.163 1.02 36.164-1.02M.365 18.195l36.16 1.148 36.153-1.148 36.157 1.148 36.156-1.148 36.157 1.148 36.157-1.148 36.16 1.148 36.16-1.148 36.157 1.148 36.16-1.148 36.16 1.148 36.157-1.148 36.16 1.148 36.16-1.148 36.163 1.148 36.164-1.148M.365 20.147l36.16 1.275 36.153-1.275 36.157 1.275 36.156-1.275 36.157 1.275 36.157-1.275 36.16 1.275 36.16-1.275 36.157 1.275 36.16-1.275 36.16 1.275 36.157-1.275 36.16 1.275 36.16-1.275 36.163 1.275 36.164-1.275M.365 22.1l36.16 1.402L72.677 22.1l36.157 1.402L144.99 22.1l36.157 1.402 36.157-1.403 36.16 1.402 36.16-1.403L325.78 23.5l36.16-1.403L398.1 23.5l36.157-1.403 36.16 1.402 36.16-1.403L542.74 23.5l36.164-1.403M.365 24.05l36.16 1.53 36.153-1.53 36.157 1.53 36.156-1.53 36.157 1.53 36.157-1.53 36.16 1.53 36.16-1.53 36.157 1.53 36.16-1.53 36.16 1.53 36.157-1.53 36.16 1.53 36.16-1.53 36.163 1.53 36.164-1.53M.365 26.002l36.16 1.658 36.153-1.658 36.157 1.658 36.156-1.658 36.157 1.658 36.157-1.658 36.16 1.658 36.16-1.658 36.157 1.658 36.16-1.658 36.16 1.658 36.157-1.658 36.16 1.658 36.16-1.658 36.163 1.658 36.164-1.658M.365 27.954l36.16 1.786 36.153-1.786 36.157 1.786 36.156-1.786 36.157 1.786 36.157-1.786 36.16 1.786 36.16-1.786 36.157 1.786 36.16-1.786 36.16 1.786 36.157-1.786 36.16 1.786 36.16-1.786 36.163 1.786 36.164-1.786M.365 29.906l36.16 1.913 36.153-1.914 36.157 1.913 36.156-1.914 36.157 1.913 36.157-1.914 36.16 1.913 36.16-1.914 36.157 1.913 36.16-1.914 36.16 1.913 36.157-1.914 36.16 1.913 36.16-1.914 36.163 1.913 36.164-1.914M.365 31.857l36.16 2.04 36.153-2.04 36.157 2.04 36.156-2.04 36.157 2.04 36.157-2.04 36.16 2.04 36.16-2.04 36.157 2.04 36.16-2.04 36.16 2.04 36.157-2.04 36.16 2.04 36.16-2.04 36.163 2.04 36.164-2.04"/><path d="M.365 33.81l36.16 2.167 36.153-2.168 36.157 2.167 36.156-2.168 36.157 2.167 36.157-2.168 36.16 2.167 36.16-2.168 36.157 2.167 36.16-2.168 36.16 2.167 36.157-2.168 36.16 2.167 36.16-2.168 36.163 2.167 36.164-2.168"/><path d="M.365 35.76l36.16 2.297 36.153-2.296 36.157 2.297 36.156-2.296 36.157 2.297 36.157-2.296 36.16 2.297 36.16-2.296 36.157 2.297 36.16-2.296 36.16 2.297 36.157-2.296 36.16 2.297 36.16-2.296 36.163 2.297 36.164-2.296"/><path d="M.365 37.712l36.16 2.424 36.153-2.424 36.157 2.424 36.156-2.424 36.157 2.424 36.157-2.424 36.16 2.424 36.16-2.424 36.157 2.424 36.16-2.424 36.16 2.424 36.157-2.424 36.16 2.424 36.16-2.424 36.163 2.424 36.164-2.424"/><path d="M.365 39.664l36.16 2.55 36.153-2.55 36.157 2.55 36.156-2.55 36.157 2.55 36.157-2.55 36.16 2.55 36.16-2.55 36.157 2.55 36.16-2.55 36.16 2.55 36.157-2.55 36.16 2.55 36.16-2.55 36.163 2.55 36.164-2.55"/><path d="M.365 41.616l36.16 2.678 36.153-2.678 36.157 2.678 36.156-2.678 36.157 2.678 36.157-2.678 36.16 2.678 36.16-2.678 36.157 2.678 36.16-2.678 36.16 2.678 36.157-2.678 36.16 2.678 36.16-2.678 36.163 2.678 36.164-2.678"/><path d="M.365 43.568l36.16 2.806 36.153-2.806 36.157 2.806 36.156-2.806 36.157 2.806 36.157-2.806 36.16 2.806 36.16-2.806 36.157 2.806 36.16-2.806 36.16 2.806 36.157-2.806 36.16 2.806 36.16-2.806 36.163 2.806 36.164-2.806"/><path d="M.365 45.52l36.16 2.933 36.153-2.934 36.157 2.933 36.156-2.934 36.157 2.933 36.157-2.934 36.16 2.933 36.16-2.934 36.157 2.933 36.16-2.934 36.16 2.933 36.157-2.934 36.16 2.933 36.16-2.934 36.163 2.933 36.164-2.934"/><path d="M.365 47.47l36.16 3.062 36.153-3.06 36.157 3.06 36.156-3.06 36.157 3.06 36.157-3.06 36.16 3.06 36.16-3.06 36.157 3.06 36.16-3.06 36.16 3.06 36.157-3.06 36.16 3.06 36.16-3.06 36.163 3.06 36.164-3.06"/><path d="M.365 49.423l36.16 3.19 36.153-3.19 36.157 3.19 36.156-3.19 36.157 3.19 36.157-3.19 36.16 3.19 36.16-3.19 36.157 3.19 36.16-3.19 36.16 3.19 36.157-3.19 36.16 3.19 36.16-3.19 36.163 3.19 36.164-3.19"/><path d="M.365 51.374l36.16 3.317 36.153-3.316 36.157 3.317 36.156-3.316 36.157 3.317 36.157-3.316 36.16 3.317 36.16-3.316 36.157 3.317 36.16-3.316 36.16 3.317 36.157-3.316 36.16 3.317 36.16-3.316 36.163 3.317 36.164-3.316"/><path d="M.365 53.326l36.16 3.444 36.153-3.444 36.157 3.444 36.156-3.444 36.157 3.444 36.157-3.444 36.16 3.444 36.16-3.444 36.157 3.444 36.16-3.444 36.16 3.444 36.157-3.444 36.16 3.444 36.16-3.444 36.163 3.444 36.164-3.444"/><path d="M.365 55.278l36.16 3.57 36.153-3.57 36.157 3.57 36.156-3.57 36.157 3.57 36.157-3.57 36.16 3.57 36.16-3.57 36.157 3.57 36.16-3.57 36.16 3.57 36.157-3.57 36.16 3.57 36.16-3.57 36.163 3.57 36.164-3.57"/><path d="M.365 57.23l36.16 3.7 36.153-3.7 36.157 3.7 36.156-3.7 36.157 3.7 36.157-3.7 36.16 3.7 36.16-3.7 36.157 3.7 36.16-3.7 36.16 3.7 36.157-3.7 36.16 3.7 36.16-3.7 36.163 3.7 36.164-3.7"/><path d="M.365 59.18l36.16 3.828 36.153-3.827 36.157 3.828 36.156-3.827 36.157 3.828 36.157-3.827 36.16 3.828 36.16-3.827 36.157 3.828 36.16-3.827 36.16 3.828 36.157-3.827 36.16 3.828 36.16-3.827 36.163 3.828 36.164-3.827"/><path d="M.365 61.133l36.16 3.954 36.153-3.954 36.157 3.954 36.156-3.954 36.157 3.954 36.157-3.954 36.16 3.954 36.16-3.954 36.157 3.954 36.16-3.954 36.16 3.954 36.157-3.954 36.16 3.954 36.16-3.954 36.163 3.954 36.164-3.954"/><path d="M.365 63.085l36.16 4.08 36.153-4.08 36.157 4.08 36.156-4.08 36.157 4.08 36.157-4.08 36.16 4.08 36.16-4.08 36.157 4.08 36.16-4.08 36.16 4.08 36.157-4.08 36.16 4.08 36.16-4.08 36.163 4.08 36.164-4.08"/><path d="M.365 65.036l36.16 4.21 36.153-4.21 36.157 4.21 36.156-4.21 36.157 4.21 36.157-4.21 36.16 4.21 36.16-4.21 36.157 4.21 36.16-4.21 36.16 4.21 36.157-4.21 36.16 4.21 36.16-4.21 36.163 4.21 36.164-4.21"/><path d="M.365 66.988l36.16 4.337 36.153-4.337 36.157 4.337 36.156-4.337 36.157 4.337 36.157-4.337 36.16 4.337 36.16-4.337 36.157 4.337 36.16-4.337 36.16 4.337 36.157-4.337 36.16 4.337 36.16-4.337 36.163 4.337 36.164-4.337"/><path d="M.365 68.94l36.16 4.464 36.153-4.464 36.157 4.464 36.156-4.464 36.157 4.464 36.157-4.464 36.16 4.464 36.16-4.464 36.157 4.464 36.16-4.464 36.16 4.464 36.157-4.464 36.16 4.464 36.16-4.464 36.163 4.464 36.164-4.464"/><path d="M.365 70.892l36.16 4.592 36.153-4.592 36.157 4.592 36.156-4.592 36.157 4.592 36.157-4.592 36.16 4.592 36.16-4.592 36.157 4.592 36.16-4.592 36.16 4.592 36.157-4.592 36.16 4.592 36.16-4.592 36.163 4.592 36.164-4.592"/><path d="M.365 72.843l36.16 4.72 36.153-4.72 36.157 4.72 36.156-4.72 36.157 4.72 36.157-4.72 36.16 4.72 36.16-4.72 36.157 4.72 36.16-4.72 36.16 4.72 36.157-4.72 36.16 4.72 36.16-4.72 36.163 4.72 36.164-4.72"/><path d="M.365 74.795l36.16 4.847 36.153-4.847 36.157 4.847 36.156-4.847 36.157 4.847 36.157-4.847 36.16 4.847 36.16-4.847 36.157 4.847 36.16-4.847 36.16 4.847 36.157-4.847 36.16 4.847 36.16-4.847 36.163 4.847 36.164-4.847"/><path d="M.365 76.747l36.16 4.974 36.153-4.973 36.157 4.974 36.156-4.973 36.157 4.974 36.157-4.973 36.16 4.974 36.16-4.973 36.157 4.974 36.16-4.973 36.16 4.974 36.157-4.973 36.16 4.974 36.16-4.973 36.163 4.974 36.164-4.973"/><path d="M.365 78.698c18.08 0 18.08 5.102 36.16 5.102l36.153-5.102c18.08 0 18.08 5.102 36.157 5.102l36.156-5.102 36.157 5.102c18.08 0 18.08-5.102 36.157-5.102 18.08 0 18.08 5.102 36.16 5.102l36.16-5.102L325.78 83.8l36.16-5.102L398.1 83.8l36.157-5.102 36.16 5.102c18.08 0 18.08-5.102 36.16-5.102L542.74 83.8l36.164-5.102"/><path d="M.365 80.65c18.08 0 18.08 5.23 36.16 5.23l36.153-5.23c18.08 0 18.08 5.23 36.157 5.23l36.156-5.23 36.157 5.23c18.08 0 18.08-5.23 36.157-5.23 18.08 0 18.08 5.23 36.16 5.23l36.16-5.23 36.157 5.23 36.16-5.23 36.16 5.23 36.157-5.23 36.16 5.23c18.08 0 18.08-5.23 36.16-5.23l36.163 5.23 36.164-5.23"/><path d="M.365 82.602c18.08 0 18.08 5.357 36.16 5.357L72.677 82.6c18.08 0 18.08 5.357 36.157 5.357L144.99 82.6l36.157 5.357c18.08 0 18.08-5.358 36.157-5.358 18.08 0 18.08 5.357 36.16 5.357l36.16-5.358 36.157 5.357 36.16-5.358 36.16 5.357 36.157-5.358 36.16 5.357c18.08 0 18.08-5.358 36.16-5.358l36.163 5.357 36.164-5.358"/><path d="M.365 84.554c18.08 0 18.08 5.485 36.16 5.485l36.153-5.486c18.08 0 18.08 5.485 36.157 5.485l36.156-5.486 36.157 5.485c18.08 0 18.08-5.486 36.157-5.486 18.08 0 18.08 5.485 36.16 5.485l36.16-5.486 36.157 5.485 36.16-5.486 36.16 5.485 36.157-5.486 36.16 5.485c18.08 0 18.08-5.486 36.16-5.486l36.163 5.485 36.164-5.486"/><path d="M.365 86.505c18.08 0 18.08 5.612 36.16 5.612l36.153-5.612c18.08 0 18.08 5.612 36.157 5.612l36.156-5.612 36.157 5.612c18.08 0 18.08-5.612 36.157-5.612 18.08 0 18.08 5.612 36.16 5.612l36.16-5.612 36.157 5.612 36.16-5.612 36.16 5.612 36.157-5.612 36.16 5.612c18.08 0 18.08-5.612 36.16-5.612l36.163 5.612 36.164-5.612"/><path d="M.365 88.457c18.08 0 18.08 5.74 36.16 5.74l36.153-5.74c18.08 0 18.08 5.74 36.157 5.74l36.156-5.74 36.157 5.74c18.08 0 18.08-5.74 36.157-5.74 18.08 0 18.08 5.74 36.16 5.74l36.16-5.74 36.157 5.74 36.16-5.74 36.16 5.74 36.157-5.74 36.16 5.74c18.08 0 18.08-5.74 36.16-5.74l36.163 5.74 36.164-5.74"/><path d="M.365 90.41c18.08 0 18.08 5.866 36.16 5.866l36.153-5.867c18.08 0 18.08 5.866 36.157 5.866l36.156-5.867 36.157 5.866c18.08 0 18.08-5.867 36.157-5.867 18.08 0 18.08 5.866 36.16 5.866l36.16-5.867 36.157 5.866 36.16-5.867 36.16 5.866 36.157-5.867 36.16 5.866c18.08 0 18.08-5.867 36.16-5.867l36.163 5.866 36.164-5.867"/><path d="M.365 92.36c18.08 0 18.08 5.995 36.16 5.995l36.153-5.995c18.08 0 18.08 5.995 36.157 5.995l36.156-5.995 36.157 5.995c18.08 0 18.08-5.995 36.157-5.995 18.08 0 18.08 5.995 36.16 5.995l36.16-5.995 36.157 5.995 36.16-5.995 36.16 5.995 36.157-5.995 36.16 5.995c18.08 0 18.08-5.995 36.16-5.995l36.163 5.995 36.164-5.995"/><path d="M.365 94.312c18.08 0 18.08 6.123 36.16 6.123l36.153-6.123c18.08 0 18.08 6.123 36.157 6.123l36.156-6.123 36.157 6.123c18.08 0 18.08-6.123 36.157-6.123 18.08 0 18.08 6.123 36.16 6.123l36.16-6.123 36.157 6.123 36.16-6.123 36.16 6.123 36.157-6.123 36.16 6.123c18.08 0 18.08-6.123 36.16-6.123l36.163 6.123 36.164-6.123"/><path d="M.365 96.264c18.08 0 18.08 6.25 36.16 6.25l36.153-6.25c18.08 0 18.08 6.25 36.157 6.25l36.156-6.25 36.157 6.25c18.08 0 18.08-6.25 36.157-6.25 18.08 0 18.08 6.25 36.16 6.25l36.16-6.25 36.157 6.25 36.16-6.25 36.16 6.25 36.157-6.25 36.16 6.25c18.08 0 18.08-6.25 36.16-6.25l36.163 6.25 36.164-6.25"/><path d="M.365 98.216c18.08 0 18.08 6.377 36.16 6.377l36.153-6.377c18.08 0 18.08 6.377 36.157 6.377l36.156-6.377 36.157 6.377c18.08 0 18.08-6.377 36.157-6.377 18.08 0 18.08 6.377 36.16 6.377l36.16-6.377 36.157 6.377 36.16-6.377 36.16 6.377 36.157-6.377 36.16 6.377c18.08 0 18.08-6.377 36.16-6.377l36.163 6.377 36.164-6.377"/><path d="M.365 100.167c18.08 0 18.08 6.505 36.16 6.505l36.153-6.505c18.08 0 18.08 6.505 36.157 6.505l36.156-6.505 36.157 6.505c18.08 0 18.08-6.505 36.157-6.505 18.08 0 18.08 6.505 36.16 6.505l36.16-6.505 36.157 6.505 36.16-6.505 36.16 6.505 36.157-6.505 36.16 6.505c18.08 0 18.08-6.505 36.16-6.505l36.163 6.505 36.164-6.505M.365 208.04h578.54M.365 205.962l36.16.128 36.153-.128 36.157.128 36.156-.128 36.157.128 36.157-.128 36.16.128 36.16-.128 36.157.128 36.16-.128 36.16.128 36.157-.128 36.16.128 36.16-.128 36.163.128 36.164-.128M.365 203.882l36.16.255 36.153-.255 36.157.255 36.156-.255 36.157.255 36.157-.255 36.16.255 36.16-.255 36.157.255 36.16-.255 36.16.255 36.157-.255 36.16.255 36.16-.255 36.163.255 36.164-.255M.365 201.803l36.16.382 36.153-.382 36.157.382 36.156-.382 36.157.382 36.157-.382 36.16.382 36.16-.382 36.157.382 36.16-.382 36.16.382 36.157-.382 36.16.382 36.16-.382 36.163.382 36.164-.382M.365 199.724l36.16.51 36.153-.51 36.157.51 36.156-.51 36.157.51 36.157-.51 36.16.51 36.16-.51 36.157.51 36.16-.51 36.16.51 36.157-.51 36.16.51 36.16-.51 36.163.51 36.164-.51M.365 197.645l36.16.638 36.153-.638 36.157.638 36.156-.638 36.157.638 36.157-.638 36.16.638 36.16-.638 36.157.638 36.16-.638 36.16.638 36.157-.638 36.16.638 36.16-.638 36.163.638 36.164-.638M.365 195.565l36.16.765 36.153-.765 36.157.765 36.156-.765 36.157.765 36.157-.765 36.16.765 36.16-.765 36.157.765 36.16-.765 36.16.765 36.157-.765 36.16.765 36.16-.765 36.163.765 36.164-.765M.365 193.486l36.16.893 36.153-.894 36.157.893 36.156-.894 36.157.893 36.157-.894 36.16.893 36.16-.894 36.157.893 36.16-.894 36.16.893 36.157-.894 36.16.893 36.16-.894 36.163.893 36.164-.894M.365 191.407l36.16 1.02 36.153-1.02 36.157 1.02 36.156-1.02 36.157 1.02 36.157-1.02 36.16 1.02 36.16-1.02 36.157 1.02 36.16-1.02 36.16 1.02 36.157-1.02 36.16 1.02 36.16-1.02 36.163 1.02 36.164-1.02M.365 189.327l36.16 1.148 36.153-1.148 36.157 1.148 36.156-1.148 36.157 1.148 36.157-1.148 36.16 1.148 36.16-1.148 36.157 1.148 36.16-1.148 36.16 1.148 36.157-1.148 36.16 1.148 36.16-1.148 36.163 1.148 36.164-1.148M.365 187.248l36.16 1.275 36.153-1.275 36.157 1.275 36.156-1.275 36.157 1.275 36.157-1.275 36.16 1.275 36.16-1.275 36.157 1.275 36.16-1.275 36.16 1.275 36.157-1.275 36.16 1.275 36.16-1.275 36.163 1.275 36.164-1.275M.365 185.17l36.16 1.402 36.153-1.403 36.157 1.402 36.156-1.403 36.157 1.402 36.157-1.403 36.16 1.402 36.16-1.403 36.157 1.402 36.16-1.403 36.16 1.402 36.157-1.403 36.16 1.402 36.16-1.403 36.163 1.402 36.164-1.403M.365 183.09l36.16 1.53 36.153-1.53 36.157 1.53 36.156-1.53 36.157 1.53 36.157-1.53 36.16 1.53 36.16-1.53 36.157 1.53 36.16-1.53 36.16 1.53 36.157-1.53 36.16 1.53 36.16-1.53 36.163 1.53 36.164-1.53M.365 181.01l36.16 1.658 36.153-1.658 36.157 1.658 36.156-1.658 36.157 1.658 36.157-1.658 36.16 1.658 36.16-1.658 36.157 1.658 36.16-1.658 36.16 1.658 36.157-1.658 36.16 1.658 36.16-1.658 36.163 1.658 36.164-1.658M.365 178.93l36.16 1.787 36.153-1.786 36.157 1.787 36.156-1.786 36.157 1.787 36.157-1.786 36.16 1.787 36.16-1.786 36.157 1.787 36.16-1.786 36.16 1.787 36.157-1.786 36.16 1.787 36.16-1.786 36.163 1.787 36.164-1.786M.365 176.852l36.16 1.913 36.153-1.913 36.157 1.913 36.156-1.913 36.157 1.913 36.157-1.913 36.16 1.913 36.16-1.913 36.157 1.913 36.16-1.913 36.16 1.913 36.157-1.913 36.16 1.913 36.16-1.913 36.163 1.913 36.164-1.913M.365 174.773l36.16 2.04 36.153-2.04 36.157 2.04 36.156-2.04 36.157 2.04 36.157-2.04 36.16 2.04 36.16-2.04 36.157 2.04 36.16-2.04 36.16 2.04 36.157-2.04 36.16 2.04 36.16-2.04 36.163 2.04 36.164-2.04"/><path d="M.365 172.693l36.16 2.168 36.153-2.167 36.157 2.168 36.156-2.167 36.157 2.168 36.157-2.167 36.16 2.168 36.16-2.167 36.157 2.168 36.16-2.167 36.16 2.168 36.157-2.167 36.16 2.168 36.16-2.167 36.163 2.168 36.164-2.167"/><path d="M.365 170.614l36.16 2.296 36.153-2.296 36.157 2.296 36.156-2.296 36.157 2.296 36.157-2.296 36.16 2.296 36.16-2.296 36.157 2.296 36.16-2.296 36.16 2.296 36.157-2.296 36.16 2.296 36.16-2.296 36.163 2.296 36.164-2.296"/><path d="M.365 168.535l36.16 2.424 36.153-2.425 36.157 2.424 36.156-2.425 36.157 2.424 36.157-2.425 36.16 2.424 36.16-2.425 36.157 2.424 36.16-2.425 36.16 2.424 36.157-2.425 36.16 2.424 36.16-2.425 36.163 2.424 36.164-2.425"/><path d="M.365 166.456l36.16 2.55 36.153-2.55 36.157 2.55 36.156-2.55 36.157 2.55 36.157-2.55 36.16 2.55 36.16-2.55 36.157 2.55 36.16-2.55 36.16 2.55 36.157-2.55 36.16 2.55 36.16-2.55 36.163 2.55 36.164-2.55"/><path d="M.365 164.376l36.16 2.678 36.153-2.678 36.157 2.678 36.156-2.678 36.157 2.678 36.157-2.678 36.16 2.678 36.16-2.678 36.157 2.678 36.16-2.678 36.16 2.678 36.157-2.678 36.16 2.678 36.16-2.678 36.163 2.678 36.164-2.678"/><path d="M.365 162.297l36.16 2.806 36.153-2.806 36.157 2.806 36.156-2.806 36.157 2.806 36.157-2.806 36.16 2.806 36.16-2.806 36.157 2.806 36.16-2.806 36.16 2.806 36.157-2.806 36.16 2.806 36.16-2.806 36.163 2.806 36.164-2.806"/><path d="M.365 160.218l36.16 2.934 36.153-2.934 36.157 2.934 36.156-2.934 36.157 2.934 36.157-2.934 36.16 2.934 36.16-2.934 36.157 2.934 36.16-2.934 36.16 2.934 36.157-2.934 36.16 2.934 36.16-2.934 36.163 2.934 36.164-2.934"/><path d="M.365 158.14l36.16 3.06 36.153-3.06 36.157 3.06 36.156-3.06 36.157 3.06 36.157-3.06 36.16 3.06 36.16-3.06 36.157 3.06 36.16-3.06 36.16 3.06 36.157-3.06 36.16 3.06 36.16-3.06 36.163 3.06 36.164-3.06"/><path d="M.365 156.06l36.16 3.188 36.153-3.19 36.157 3.19 36.156-3.19 36.157 3.19 36.157-3.19 36.16 3.19 36.16-3.19 36.157 3.19 36.16-3.19 36.16 3.19 36.157-3.19 36.16 3.19 36.16-3.19 36.163 3.19 36.164-3.19"/><path d="M.365 153.98l36.16 3.317 36.153-3.317 36.157 3.317 36.156-3.317 36.157 3.317 36.157-3.317 36.16 3.317 36.16-3.317 36.157 3.317 36.16-3.317 36.16 3.317 36.157-3.317 36.16 3.317 36.16-3.317 36.163 3.317 36.164-3.317"/><path d="M.365 151.9l36.16 3.445 36.153-3.444 36.157 3.445 36.156-3.444 36.157 3.445 36.157-3.444 36.16 3.445 36.16-3.444 36.157 3.445 36.16-3.444 36.16 3.445 36.157-3.444 36.16 3.445 36.16-3.444 36.163 3.445 36.164-3.444"/><path d="M.365 149.822l36.16 3.57 36.153-3.57 36.157 3.57 36.156-3.57 36.157 3.57 36.157-3.57 36.16 3.57 36.16-3.57 36.157 3.57 36.16-3.57 36.16 3.57 36.157-3.57 36.16 3.57 36.16-3.57 36.163 3.57 36.164-3.57"/><path d="M.365 147.742l36.16 3.7 36.153-3.7 36.157 3.7 36.156-3.7 36.157 3.7 36.157-3.7 36.16 3.7 36.16-3.7 36.157 3.7 36.16-3.7 36.16 3.7 36.157-3.7 36.16 3.7 36.16-3.7 36.163 3.7 36.164-3.7"/><path d="M.365 145.663l36.16 3.827 36.153-3.827 36.157 3.827 36.156-3.827 36.157 3.827 36.157-3.827 36.16 3.827 36.16-3.827 36.157 3.827 36.16-3.827 36.16 3.827 36.157-3.827 36.16 3.827 36.16-3.827 36.163 3.827 36.164-3.827"/><path d="M.365 143.584l36.16 3.954 36.153-3.954 36.157 3.954 36.156-3.954 36.157 3.954 36.157-3.954 36.16 3.954 36.16-3.954 36.157 3.954 36.16-3.954 36.16 3.954 36.157-3.954 36.16 3.954 36.16-3.954 36.163 3.954 36.164-3.954"/><path d="M.365 141.504l36.16 4.08 36.153-4.08 36.157 4.08 36.156-4.08 36.157 4.08 36.157-4.08 36.16 4.08 36.16-4.08 36.157 4.08 36.16-4.08 36.16 4.08 36.157-4.08 36.16 4.08 36.16-4.08 36.163 4.08 36.164-4.08"/><path d="M.365 139.425l36.16 4.21 36.153-4.21 36.157 4.21 36.156-4.21 36.157 4.21 36.157-4.21 36.16 4.21 36.16-4.21 36.157 4.21 36.16-4.21 36.16 4.21 36.157-4.21 36.16 4.21 36.16-4.21 36.163 4.21 36.164-4.21"/><path d="M.365 137.346l36.16 4.337 36.153-4.337 36.157 4.337 36.156-4.337 36.157 4.337 36.157-4.337 36.16 4.337 36.16-4.337 36.157 4.337 36.16-4.337 36.16 4.337 36.157-4.337 36.16 4.337 36.16-4.337 36.163 4.337 36.164-4.337"/><path d="M.365 135.266l36.16 4.464 36.153-4.464 36.157 4.464 36.156-4.464 36.157 4.464 36.157-4.464 36.16 4.464 36.16-4.464 36.157 4.464 36.16-4.464 36.16 4.464 36.157-4.464 36.16 4.464 36.16-4.464 36.163 4.464 36.164-4.464"/><path d="M.365 133.187l36.16 4.592 36.153-4.593 36.157 4.592 36.156-4.593 36.157 4.592 36.157-4.593 36.16 4.592 36.16-4.593 36.157 4.592 36.16-4.593 36.16 4.592 36.157-4.593 36.16 4.592 36.16-4.593 36.163 4.592 36.164-4.593"/><path d="M.365 131.108l36.16 4.72 36.153-4.72 36.157 4.72 36.156-4.72 36.157 4.72 36.157-4.72 36.16 4.72 36.16-4.72 36.157 4.72 36.16-4.72 36.16 4.72 36.157-4.72 36.16 4.72 36.16-4.72 36.163 4.72 36.164-4.72"/><path d="M.365 129.03l36.16 4.846 36.153-4.847 36.157 4.846 36.156-4.847 36.157 4.846 36.157-4.847 36.16 4.846 36.16-4.847 36.157 4.846 36.16-4.847 36.16 4.846 36.157-4.847 36.16 4.846 36.16-4.847 36.163 4.846 36.164-4.847"/><path d="M.365 126.95l36.16 4.973 36.153-4.974 36.157 4.973 36.156-4.974 36.157 4.973 36.157-4.974 36.16 4.973 36.16-4.974 36.157 4.973 36.16-4.974 36.16 4.973 36.157-4.974 36.16 4.973 36.16-4.974 36.163 4.973 36.164-4.974"/><path d="M.365 124.87c18.08 0 18.08 5.102 36.16 5.102l36.153-5.102c18.08 0 18.08 5.102 36.157 5.102l36.156-5.102 36.157 5.102c18.08 0 18.08-5.102 36.157-5.102 18.08 0 18.08 5.102 36.16 5.102l36.16-5.102 36.157 5.102 36.16-5.102 36.16 5.102 36.157-5.102 36.16 5.102c18.08 0 18.08-5.102 36.16-5.102l36.163 5.102 36.164-5.102"/><path d="M.365 122.79c18.08 0 18.08 5.23 36.16 5.23l36.153-5.23c18.08 0 18.08 5.23 36.157 5.23l36.156-5.23 36.157 5.23c18.08 0 18.08-5.23 36.157-5.23 18.08 0 18.08 5.23 36.16 5.23l36.16-5.23 36.157 5.23 36.16-5.23 36.16 5.23 36.157-5.23 36.16 5.23c18.08 0 18.08-5.23 36.16-5.23l36.163 5.23 36.164-5.23"/><path d="M.365 120.712c18.08 0 18.08 5.357 36.16 5.357l36.153-5.358c18.08 0 18.08 5.357 36.157 5.357l36.156-5.358 36.157 5.357c18.08 0 18.08-5.358 36.157-5.358 18.08 0 18.08 5.357 36.16 5.357l36.16-5.358 36.157 5.357 36.16-5.358 36.16 5.357 36.157-5.358 36.16 5.357c18.08 0 18.08-5.358 36.16-5.358l36.163 5.357 36.164-5.358"/><path d="M.365 118.632c18.08 0 18.08 5.485 36.16 5.485l36.153-5.485c18.08 0 18.08 5.485 36.157 5.485l36.156-5.485 36.157 5.485c18.08 0 18.08-5.485 36.157-5.485 18.08 0 18.08 5.485 36.16 5.485l36.16-5.485 36.157 5.485 36.16-5.485 36.16 5.485 36.157-5.485 36.16 5.485c18.08 0 18.08-5.485 36.16-5.485l36.163 5.485 36.164-5.485"/><path d="M.365 116.553c18.08 0 18.08 5.612 36.16 5.612l36.153-5.612c18.08 0 18.08 5.612 36.157 5.612l36.156-5.612 36.157 5.612c18.08 0 18.08-5.612 36.157-5.612 18.08 0 18.08 5.612 36.16 5.612l36.16-5.612 36.157 5.612 36.16-5.612 36.16 5.612 36.157-5.612 36.16 5.612c18.08 0 18.08-5.612 36.16-5.612l36.163 5.612 36.164-5.612"/><path d="M.365 114.474c18.08 0 18.08 5.74 36.16 5.74l36.153-5.74c18.08 0 18.08 5.74 36.157 5.74l36.156-5.74 36.157 5.74c18.08 0 18.08-5.74 36.157-5.74 18.08 0 18.08 5.74 36.16 5.74l36.16-5.74 36.157 5.74 36.16-5.74 36.16 5.74 36.157-5.74 36.16 5.74c18.08 0 18.08-5.74 36.16-5.74l36.163 5.74 36.164-5.74"/><path d="M.365 112.395c18.08 0 18.08 5.867 36.16 5.867l36.153-5.867c18.08 0 18.08 5.867 36.157 5.867l36.156-5.867 36.157 5.867c18.08 0 18.08-5.867 36.157-5.867 18.08 0 18.08 5.867 36.16 5.867l36.16-5.867 36.157 5.867 36.16-5.867 36.16 5.867 36.157-5.867 36.16 5.867c18.08 0 18.08-5.867 36.16-5.867l36.163 5.867 36.164-5.867"/><path d="M.365 110.315c18.08 0 18.08 5.995 36.16 5.995l36.153-5.995c18.08 0 18.08 5.995 36.157 5.995l36.156-5.995 36.157 5.995c18.08 0 18.08-5.995 36.157-5.995 18.08 0 18.08 5.995 36.16 5.995l36.16-5.995 36.157 5.995 36.16-5.995 36.16 5.995 36.157-5.995 36.16 5.995c18.08 0 18.08-5.995 36.16-5.995l36.163 5.995 36.164-5.995"/><path d="M.365 108.236c18.08 0 18.08 6.123 36.16 6.123l36.153-6.124c18.08 0 18.08 6.123 36.157 6.123l36.156-6.124 36.157 6.123c18.08 0 18.08-6.124 36.157-6.124 18.08 0 18.08 6.123 36.16 6.123l36.16-6.124 36.157 6.123 36.16-6.124 36.16 6.123 36.157-6.124 36.16 6.123c18.08 0 18.08-6.124 36.16-6.124l36.163 6.123 36.164-6.124"/><path d="M.365 106.157c18.08 0 18.08 6.25 36.16 6.25l36.153-6.25c18.08 0 18.08 6.25 36.157 6.25l36.156-6.25 36.157 6.25c18.08 0 18.08-6.25 36.157-6.25 18.08 0 18.08 6.25 36.16 6.25l36.16-6.25 36.157 6.25 36.16-6.25 36.16 6.25 36.157-6.25 36.16 6.25c18.08 0 18.08-6.25 36.16-6.25l36.163 6.25 36.164-6.25"/><path d="M.365 104.078c18.08 0 18.08 6.377 36.16 6.377l36.153-6.377c18.08 0 18.08 6.377 36.157 6.377l36.156-6.377 36.157 6.377c18.08 0 18.08-6.377 36.157-6.377 18.08 0 18.08 6.377 36.16 6.377l36.16-6.377 36.157 6.377 36.16-6.377 36.16 6.377 36.157-6.377 36.16 6.377c18.08 0 18.08-6.377 36.16-6.377l36.163 6.377 36.164-6.377"/><path d="M.365 101.998c18.08 0 18.08 6.505 36.16 6.505l36.153-6.505c18.08 0 18.08 6.505 36.157 6.505l36.156-6.505 36.157 6.505c18.08 0 18.08-6.505 36.157-6.505 18.08 0 18.08 6.505 36.16 6.505l36.16-6.505 36.157 6.505 36.16-6.505 36.16 6.505 36.157-6.505 36.16 6.505c18.08 0 18.08-6.505 36.16-6.505l36.163 6.505 36.164-6.505"/></g></svg>